<svg width="296" height="206" viewBox="0 0 296 206" fill="none" xmlns="http://www.w3.org/2000/svg">
<path d="M222.204 183.797H49.5586V185.162H222.204V183.797Z" fill="#847F99"/>
<path d="M295.702 183.797H285.956V185.162H295.702V183.797Z" fill="#847F99"/>
<path d="M60.6826 162.817L62.1636 184.48H85.7304L84.1402 161.213L60.6826 162.817Z" fill="#847F99"/>
<path d="M86.4605 185.162H61.5287L59.959 162.183L84.7815 160.483L86.4673 185.162H86.4605ZM62.805 183.797H84.9999L83.5052 161.937L61.4059 163.452L62.7982 183.797H62.805Z" fill="#847F99"/>
<path d="M41.1832 184.48L68.4014 118.216L46.6432 111.698L16.5791 184.48H41.1832Z" fill="#847F99"/>
<path d="M41.6408 185.162H15.5625L46.2477 110.865L69.3231 117.772L41.6408 185.162ZM17.6032 183.797H40.7263L67.4871 118.653L47.0394 112.531L17.6032 183.804V183.797Z" fill="#847F99"/>
<path d="M96.7333 184.48H122.368C122.272 183.443 122.184 182.391 122.109 181.299C121.262 168.728 122.313 159.343 125.228 153.167C128.176 146.997 132.599 143.714 138.495 143.311C144.263 142.895 148.972 145.557 152.596 151.304C156.254 157.05 158.472 166.189 159.353 178.761C159.489 180.747 159.571 182.651 159.612 184.48H185.581C185.588 182.043 185.513 179.552 185.335 176.993C184.789 168.735 183.411 161.125 181.22 154.232C179.036 147.338 175.965 141.441 172.013 136.589C168.027 131.729 163.168 128.044 157.428 125.526C151.654 123.041 145 122.024 137.417 122.536C129.698 123.062 123.146 124.966 117.72 128.235C112.328 131.511 107.96 135.804 104.698 141.162C101.408 146.512 99.1152 152.75 97.7638 159.889C96.4398 167.035 96.0371 174.747 96.6104 183.04C96.6445 183.524 96.6855 183.995 96.7196 184.473L96.7333 184.48Z" fill="white"/>
<path d="M186.263 185.162H158.943L158.929 184.494C158.888 182.637 158.799 180.726 158.67 178.808C157.803 166.373 155.564 157.241 152.015 151.672C148.548 146.178 144.009 143.605 138.536 143.994C132.851 144.376 128.694 147.475 125.834 153.46C122.975 159.521 121.944 168.878 122.777 181.259C122.852 182.337 122.941 183.388 123.036 184.418L123.104 185.162H96.091L96.0091 184.139C95.9818 183.791 95.9545 183.443 95.9272 183.088C95.3539 174.863 95.743 167.022 97.0875 159.767C98.4593 152.532 100.828 146.151 104.117 140.8C107.386 135.429 111.843 131.006 117.365 127.648C122.859 124.331 129.588 122.379 137.369 121.847C144.979 121.328 151.817 122.352 157.7 124.891C163.508 127.437 168.504 131.224 172.538 136.145C176.524 141.039 179.663 147.052 181.868 154.013C184.065 160.954 185.458 168.666 186.01 176.938C186.181 179.395 186.263 181.927 186.256 184.473V185.156L186.263 185.162ZM160.273 183.797H184.898C184.891 181.518 184.809 179.245 184.652 177.041C184.113 168.878 182.734 161.275 180.571 154.436C178.414 147.632 175.357 141.776 171.487 137.019C167.59 132.269 162.765 128.61 157.161 126.153C151.483 123.703 144.856 122.72 137.471 123.219C129.916 123.737 123.391 125.621 118.081 128.822C112.751 132.064 108.444 136.336 105.291 141.517C102.09 146.724 99.7834 152.948 98.4388 160.019C97.1216 167.158 96.7326 174.891 97.2991 182.999C97.3195 183.265 97.34 183.531 97.3605 183.797H121.617C121.548 182.999 121.48 182.18 121.419 181.347C120.572 168.728 121.644 159.152 124.606 152.873C127.657 146.492 132.311 143.045 138.447 142.629C138.85 142.602 139.252 142.588 139.648 142.588C145.129 142.588 149.674 145.4 153.175 150.935C156.895 156.777 159.14 165.861 160.035 178.713C160.151 180.426 160.232 182.132 160.28 183.797H160.273Z" fill="#847F99"/>
<path d="M281.008 184.48L279.274 173.73L267.037 174.556L265.187 147.359L241.723 148.963L243.586 176.133L219.275 177.812L249.476 104.361L227.684 97.8364L191.9 184.48H281.008Z" fill="#847F99"/>
<path d="M281.813 185.162H190.884L227.295 97.0038L250.405 103.918L220.334 177.054L242.863 175.491L241 148.321L265.822 146.622L267.679 173.826L279.855 173L281.82 185.162H281.813ZM192.924 183.797H280.209L278.701 174.447L266.409 175.28L264.553 148.082L242.454 149.597L244.317 176.768L218.232 178.569L248.562 104.798L228.08 98.6691L192.918 183.797H192.924Z" fill="#847F99"/>
<path d="M148.48 129.061C148.712 131.968 142.781 134.821 135.226 135.429C127.671 136.036 121.358 134.173 121.126 131.265C120.894 128.358 126.825 125.505 134.38 124.898C141.935 124.29 148.248 126.153 148.48 129.061Z" fill="#CFD2D8"/>
<path d="M161.781 130.692C161.358 131.866 158.806 132.023 156.076 131.047C153.346 130.071 151.475 128.324 151.899 127.15C152.322 125.976 154.874 125.819 157.604 126.795C160.334 127.771 162.204 129.518 161.781 130.692Z" fill="#CFD2D8"/>
<path d="M8.20563 183.797H0.015625V185.162H8.20563V183.797Z" fill="#847F99"/>
<path d="M42.4872 194.929H34.4814V196.294H42.4872V194.929Z" fill="#847F99"/>
<path d="M68.4016 194.929H53.9326V196.294H68.4016V194.929Z" fill="#847F99"/>
<path d="M228.653 194.929H222.203V196.294H228.653V194.929Z" fill="#847F99"/>
<path d="M264.484 194.929H236.454V196.294H264.484V194.929Z" fill="#847F99"/>
<path d="M29.7045 204.395H22.6406V205.76H29.7045V204.395Z" fill="#847F99"/>
<path d="M275.064 204.395H268V205.76H275.064V204.395Z" fill="#847F99"/>
<path d="M127.411 129.832C126.47 129.832 125.705 129.068 125.712 128.119C125.746 113.22 121.303 103.447 120.163 101.631C119.931 101.406 119.767 101.112 119.692 100.778C119.549 100.136 119.788 99.4539 120.307 99.0444C120.819 98.6418 121.528 98.5667 122.115 98.8533C123.719 99.6314 126.122 107.187 126.142 107.262C127.514 111.65 129.145 118.83 129.125 128.126C129.125 129.068 128.36 129.825 127.418 129.825L127.411 129.832Z" fill="#2A2C35"/>
<path d="M167.993 110.64C167.569 110.64 167.146 110.483 166.812 110.169C166.129 109.514 166.109 108.436 166.757 107.753C167.904 106.545 170.886 102.58 169.569 100.273C168.19 97.8637 162.614 95.6934 159.427 94.8949C158.513 94.6628 157.96 93.7414 158.185 92.8269C158.417 91.9123 159.338 91.3595 160.253 91.5847C161.243 91.8304 169.972 94.1305 172.524 98.5804C175.384 103.576 169.474 109.848 169.214 110.115C168.88 110.463 168.429 110.64 167.979 110.64H167.993Z" fill="#2A2C35"/>
<path d="M155.981 48.2254C155.715 48.2254 155.442 48.164 155.189 48.0275C154.357 47.5907 154.036 46.5533 154.473 45.7207L165.823 24.181C166.259 23.3483 167.297 23.0275 168.129 23.4643C168.962 23.9011 169.283 24.9385 168.846 25.7712L157.496 47.3109C157.189 47.891 156.595 48.2254 155.988 48.2254H155.981Z" fill="#2A2C35"/>
<path d="M111.747 63.2746C111.686 63.2746 111.631 63.2746 111.57 63.2678L84.1539 60.3945C83.2189 60.2989 82.5364 59.4594 82.632 58.5176C82.7275 57.5826 83.567 56.9069 84.5088 56.9956L111.925 59.8689C112.86 59.9645 113.542 60.804 113.447 61.7458C113.358 62.6194 112.614 63.2746 111.754 63.2746H111.747Z" fill="#2A2C35"/>
<path d="M169.392 95.632L124.026 109.657C123.111 109.937 122.142 109.425 121.855 108.511L105.277 54.9004C105.141 54.4636 105.189 53.9927 105.394 53.59L111.243 42.3765C111.454 41.967 111.823 41.6599 112.266 41.5234L149.128 30.1256C150.043 29.8458 151.012 30.3577 151.298 31.2722L170.531 93.4617C170.811 94.3762 170.299 95.3454 169.385 95.632H169.392Z" fill="white"/>
<path d="M123.514 110.422C122.449 110.422 121.521 109.739 121.207 108.722L104.629 55.112C104.438 54.4977 104.499 53.8493 104.793 53.2829L110.642 42.0694C110.935 41.5029 111.461 41.0661 112.068 40.8818L148.93 29.4841C149.162 29.4158 149.401 29.3749 149.647 29.3749C150.712 29.3749 151.64 30.0574 151.954 31.0743L171.187 93.2637C171.378 93.878 171.316 94.5332 171.016 95.1065C170.716 95.6798 170.211 96.0961 169.596 96.2872L124.231 110.313C123.998 110.388 123.76 110.422 123.514 110.422ZM149.647 30.733C149.544 30.733 149.435 30.7467 149.333 30.7808L112.471 42.1786C112.205 42.2605 111.98 42.4516 111.85 42.6973L106.001 53.9039C105.871 54.1496 105.844 54.4363 105.926 54.7025L122.504 108.313C122.674 108.859 123.268 109.18 123.814 109.009L169.18 94.9768C169.446 94.8949 169.665 94.7106 169.801 94.4649C169.931 94.2192 169.958 93.9326 169.876 93.6664L150.643 31.477C150.507 31.0334 150.104 30.7399 149.64 30.7399L149.647 30.733Z" fill="#847F99"/>
<path d="M139.464 67.2126C140.263 63.766 138.727 60.0054 136.038 58.8111C133.349 57.6167 130.523 59.439 129.725 62.8856C128.926 66.3322 130.462 70.0928 133.151 71.2872C135.84 72.4815 138.666 70.6593 139.464 67.2126Z" fill="#847F99"/>
<path d="M133.151 71.2803C131.929 70.7411 130.953 69.6696 130.318 68.3387C131.574 67.0693 133.308 66.6393 134.987 67.3832C136.208 67.9224 137.184 69.0008 137.812 70.3316C136.556 71.5943 134.823 72.0242 133.144 71.2803H133.151Z" fill="#FFFCF3"/>
<path d="M111.625 41.8987C111.625 41.8987 111.591 41.9397 111.571 41.9533L105.292 53.8562C105.258 53.9585 105.237 54.0677 105.224 54.1769L112.922 51.795C113.816 51.522 114.315 50.5733 114.042 49.6793L111.632 41.8987H111.625Z" fill="#FFFCF3"/>
<path d="M104.411 55.146L104.541 54.095C104.561 53.9448 104.595 53.7947 104.636 53.6514L104.684 53.5422L111.093 41.4687C111.093 41.4687 111.147 41.4141 111.175 41.3868L111.966 40.6907L114.683 49.4813C114.867 50.0887 114.812 50.7303 114.512 51.2899C114.219 51.8496 113.72 52.2659 113.113 52.4502L104.404 55.146H104.411ZM111.455 43.6459L106.479 53.0781L112.717 51.1466C112.976 51.0647 113.188 50.894 113.311 50.6552C113.434 50.4163 113.461 50.1433 113.379 49.884L111.448 43.6459H111.455Z" fill="#847F99"/>
<path d="M141.232 51.2421C141.327 52.0338 140.768 52.7505 139.976 52.846C139.184 52.9416 138.467 52.3819 138.372 51.5902C138.276 50.7985 138.836 50.0819 139.628 49.9863C140.419 49.8908 141.136 50.4504 141.232 51.2421Z" fill="#847F99"/>
<path d="M127.124 56.5793C127.22 57.371 126.66 58.0876 125.868 58.1832C125.077 58.2787 124.36 57.7191 124.265 56.9274C124.169 56.1357 124.729 55.419 125.52 55.3235C126.312 55.2279 127.029 55.7876 127.124 56.5793Z" fill="#847F99"/>
<path d="M64.382 13.766H39.3548C38.6859 13.766 38.0307 13.4862 37.5734 13.0016C37.1093 12.5102 36.8705 11.8687 36.9046 11.193C36.9251 10.8381 36.9796 10.4764 37.0684 10.1215C37.5871 8.13541 39.2182 6.62026 41.2248 6.25854C42.3168 6.06061 43.4293 6.20394 44.4053 6.66121C45.2379 2.80508 48.6504 0 52.6772 0C56.7039 0 60.0209 2.70271 60.9149 6.52471C61.3859 6.43599 61.8568 6.42234 62.3414 6.47011C64.7915 6.72946 66.723 8.77696 66.8322 11.2408C66.8595 11.9369 66.6206 12.5444 66.1702 13.0085C65.7061 13.493 65.0577 13.766 64.382 13.766ZM42.1871 7.39831C41.9414 7.39831 41.6889 7.41878 41.4364 7.46656C39.9212 7.73956 38.6381 8.9271 38.2491 10.4286C38.1808 10.7016 38.1331 10.9814 38.1194 11.2544C38.099 11.5889 38.2218 11.9096 38.4538 12.1553C38.6927 12.401 39.0067 12.5444 39.3548 12.5444H64.382C64.7233 12.5444 65.0509 12.401 65.2898 12.1622C65.5082 11.9369 65.6242 11.6435 65.6105 11.3363C65.5286 9.46628 64.034 7.88289 62.2117 7.68496C61.6725 7.63036 61.1402 7.68496 60.6283 7.85559L59.9458 8.08081L59.8366 7.37101C59.2906 3.80835 56.2808 1.2285 52.684 1.2285C49.0872 1.2285 45.8726 4.0131 45.4768 7.6986L45.3676 8.72919L44.5213 8.13541C43.8319 7.65766 43.0266 7.39831 42.194 7.39831H42.1871Z" fill="#847F99"/>
<path d="M248.676 36.3088H228.051C227.232 36.3088 226.426 35.9743 225.853 35.401C225.3 34.8482 225 34.1248 225 33.3604C225 32.9986 225.034 32.6301 225.102 32.2752C225.512 30.0434 227.204 28.2211 229.402 27.6274C230.385 27.3612 231.402 27.3475 232.378 27.5932C233.743 24.7881 236.568 23 239.715 23C243.359 23 246.587 25.4706 247.57 28.9378C249.884 29.0947 251.72 31.0262 251.72 33.374C251.706 35.0052 250.341 36.3088 248.669 36.3088H248.676ZM230.965 28.6306C230.549 28.6306 230.132 28.6852 229.723 28.8013C227.976 29.2722 226.631 30.7259 226.31 32.4936C226.256 32.7802 226.228 33.0737 226.228 33.3604C226.228 33.7972 226.406 34.2135 226.727 34.5343C227.075 34.8823 227.559 35.0871 228.058 35.0871H248.683C249.666 35.0871 250.505 34.309 250.512 33.3945C250.512 31.5927 249.065 30.1458 247.284 30.1458C247.229 30.1526 247.181 30.1594 247.133 30.1663L246.622 30.1867L246.512 29.6817C245.823 26.5149 242.97 24.2149 239.728 24.2149C236.889 24.2149 234.364 25.9143 233.292 28.5487L233.074 29.0879L232.528 28.8968C232.016 28.7194 231.497 28.6306 230.972 28.6306H230.965Z" fill="#847F99"/>
</svg>
