<svg width="300" height="206" viewBox="0 0 300 206" fill="none" xmlns="http://www.w3.org/2000/svg">
<path d="M288.428 181.033H12V181.171H288.428V181.033Z" fill="#EBEBEB"/>
<path d="M143.033 156.376H36.276C34.5345 156.376 33.1191 154.96 33.1191 153.219V3.15681C33.1191 1.41531 34.5345 0 36.276 0H143.033C144.774 0 146.189 1.41531 146.189 3.15681V153.219C146.189 154.96 144.774 156.376 143.033 156.376ZM36.276 0.138214C34.6119 0.138214 33.2574 1.49271 33.2574 3.15681V153.219C33.2574 154.883 34.6119 156.237 36.276 156.237H143.033C144.697 156.237 146.051 154.883 146.051 153.219V3.15681C146.051 1.49271 144.697 0.138214 143.033 0.138214H36.276Z" fill="#EBEBEB"/>
<path d="M262.616 156.376H155.859C154.117 156.376 152.702 154.96 152.702 153.219V3.15681C152.702 1.41531 154.117 0 155.859 0H262.616C264.357 0 265.772 1.41531 265.772 3.15681V153.219C265.772 154.96 264.357 156.376 262.616 156.376ZM155.859 0.138214C154.195 0.138214 152.84 1.49271 152.84 3.15681V153.219C152.84 154.883 154.195 156.237 155.859 156.237H262.616C264.28 156.237 265.634 154.883 265.634 153.219V3.15681C265.634 1.49271 264.28 0.138214 262.616 0.138214H155.859Z" fill="#EBEBEB"/>
<path d="M54.7249 186.296H40.3506V186.434H54.7249V186.296Z" fill="#EBEBEB"/>
<path d="M117.142 184.798H92.2471V184.936H117.142V184.798Z" fill="#EBEBEB"/>
<path d="M88.8855 191.432H55.2773V191.57H88.8855V191.432Z" fill="#EBEBEB"/>
<path d="M260.078 190.503H249.446V190.642H260.078V190.503Z" fill="#EBEBEB"/>
<path d="M244.521 190.503H213.953V190.642H244.521V190.503Z" fill="#EBEBEB"/>
<path d="M195.283 188.165H154.111V188.303H195.283V188.165Z" fill="#EBEBEB"/>
<path d="M117.501 88.728L110.508 181.033H177.945L184.939 88.728H117.501ZM159.911 153.971C159.342 161.501 152.774 167.604 145.244 167.604C137.714 167.604 132.075 161.501 132.644 153.971L135.104 121.518C135.674 113.988 142.242 107.879 149.772 107.879C153.537 107.879 156.832 109.405 159.109 111.876C161.387 114.342 162.653 117.753 162.371 121.518L159.911 153.971Z" fill="#E6E6E6"/>
<path d="M199.347 181.033H101.016L101.58 174.974H199.916L199.347 181.033Z" fill="#E6E6E6"/>
<path d="M237.135 146.756H245.842C246.34 146.756 246.727 146.347 246.699 145.849L246.666 145.23C246.638 144.732 246.213 144.323 245.715 144.323H237.008C236.51 144.323 236.123 144.732 236.151 145.23L236.184 145.849C236.212 146.347 236.637 146.756 237.135 146.756Z" fill="#E0E0E0"/>
<path d="M222.578 146.756H231.286C231.783 146.756 232.17 146.347 232.143 145.849L232.11 145.23C232.082 144.732 231.656 144.323 231.159 144.323H222.451C221.954 144.323 221.567 144.732 221.594 145.23L221.627 145.849C221.655 146.347 222.081 146.756 222.578 146.756Z" fill="#E0E0E0"/>
<path d="M252.62 146.076H49.3735C47.0293 146.076 45.0335 144.174 44.9174 141.83L38.7973 19.7481C38.6812 17.404 40.4835 15.5021 42.8276 15.5021H246.074C248.419 15.5021 250.414 17.404 250.53 19.7481L256.651 141.83C256.767 144.174 254.964 146.076 252.62 146.076Z" fill="#E0E0E0"/>
<path d="M255.108 146.076H51.8666C49.5225 146.076 47.5267 144.174 47.4106 141.83L41.2905 19.7481C41.1744 17.404 42.9767 15.5021 45.3208 15.5021H248.562C250.906 15.5021 252.902 17.404 253.018 19.7481L259.138 141.83C259.254 144.174 257.452 146.076 255.108 146.076Z" fill="#E6E6E6"/>
<path d="M53.0561 137.556L47.3617 24.0217C47.2898 22.5511 48.4176 21.3624 49.8882 21.3624H244.582C246.053 21.3624 247.302 22.5511 247.374 24.0217L253.063 137.551C253.135 139.021 252.007 140.21 250.537 140.21H55.848C54.3774 140.21 53.128 139.021 53.0561 137.551V137.556Z" fill="#F5F5F5"/>
<path d="M59.3583 27.1729C59.4247 28.4721 58.424 29.5281 57.1248 29.5281C55.8256 29.5281 54.7199 28.4721 54.6535 27.1729C54.5872 25.8737 55.5878 24.8177 56.8871 24.8177C58.1863 24.8177 59.292 25.8737 59.3583 27.1729Z" fill="white"/>
<path d="M70.0116 27.1729C70.078 28.4721 69.0773 29.5281 67.7781 29.5281C66.4789 29.5281 65.3732 28.4721 65.3068 27.1729C65.2405 25.8737 66.2412 24.8177 67.5404 24.8177C68.8396 24.8177 69.9453 25.8737 70.0116 27.1729Z" fill="white"/>
<path d="M80.6708 27.1729C80.7372 28.4721 79.7365 29.5281 78.4373 29.5281C77.1381 29.5281 76.0324 28.4721 75.966 27.1729C75.8997 25.8737 76.9003 24.8177 78.1996 24.8177C79.4988 24.8177 80.6045 25.8737 80.6708 27.1729Z" fill="white"/>
<g opacity="0.6">
<path d="M73.3018 140.216H101.359L127.012 21.3624H98.9543L73.3018 140.216Z" fill="white"/>
<path d="M194.046 140.216H201.15L226.803 21.3624H219.698L194.046 140.216Z" fill="white"/>
<path d="M107.596 140.216H147.401L173.054 21.3624H133.248L107.596 140.216Z" fill="white"/>
</g>
<path d="M150.214 206C209.415 206 257.407 203.198 257.407 199.742C257.407 196.285 209.415 193.483 150.214 193.483C91.0126 193.483 43.0205 196.285 43.0205 199.742C43.0205 203.198 91.0126 206 150.214 206Z" fill="#F5F5F5"/>
<path d="M211.359 115.05C211.293 115.05 211.226 115.049 211.16 115.044C196.437 113.839 186.298 101.25 185.872 100.714C185.026 99.6469 185.203 98.0934 186.27 97.242C187.337 96.3961 188.891 96.573 189.737 97.64C189.853 97.7893 198.527 108.482 210.541 110.007C214.438 106.143 217.717 95.9206 217.358 92.8246C217.358 92.797 217.352 92.7694 217.352 92.7362C217.269 91.7411 217.087 88.3355 218.065 86.3009C218.657 85.0736 220.133 84.5539 221.36 85.1455C222.588 85.737 223.107 87.2132 222.516 88.4405C222.272 88.9491 222.156 90.7846 222.272 92.305C222.82 97.3913 218.414 110.229 212.874 114.524C212.437 114.862 211.906 115.044 211.359 115.044V115.05Z" fill="#2A2C35"/>
<path d="M94.2756 101.654C89.8914 101.654 77.4798 100.576 67.4289 89.3361C66.6493 88.4626 66.5885 87.1579 67.2851 86.218C71.2767 80.8498 78.3201 68.1728 79.4203 64.0429C78.967 63.2579 78.1488 62.13 77.1315 61.649C76.3464 61.2786 75.8102 60.5212 75.7217 59.6588L75.3237 55.6118C75.191 54.2518 76.1806 53.0466 77.5406 52.9139C78.8951 52.7812 80.1059 53.7708 80.2386 55.1309L80.515 57.9449C82.9254 59.6753 84.1307 62.3733 84.2799 62.7216C84.4458 63.1141 84.5066 63.5453 84.4624 63.971C83.9538 68.3607 76.8385 81.0543 72.4599 87.473C82.6822 97.6621 94.9003 96.7333 95.4366 96.6836C96.7856 96.573 97.9908 97.5682 98.1124 98.9226C98.234 100.277 97.2389 101.477 95.8844 101.604C95.7683 101.615 95.2044 101.665 94.2811 101.665L94.2756 101.654Z" fill="#2A2C35"/>
<path d="M173.915 199.659H167.297C166.523 199.659 165.799 199.299 165.329 198.686C164.865 198.072 164.71 197.276 164.914 196.53C166.645 190.316 167.491 185.262 168.132 177.34C165.788 166.31 163.582 156.215 163.56 156.11C163.267 154.778 164.113 153.462 165.445 153.169C166.778 152.876 168.093 153.722 168.386 155.054C168.409 155.159 170.664 165.481 173.041 176.66C173.091 176.892 173.108 177.13 173.086 177.368C172.527 184.477 171.809 189.392 170.498 194.716H173.915C175.281 194.716 176.386 195.822 176.386 197.188C176.386 198.553 175.281 199.659 173.915 199.659Z" fill="#2A2C35"/>
<path d="M122.748 199.659H119.011C118.298 199.659 117.618 199.349 117.148 198.807C116.678 198.271 116.468 197.552 116.567 196.845C117.203 192.311 120.459 184.057 123.92 175.759C125.153 164.812 126.165 155.414 126.176 155.32C126.32 153.965 127.536 152.975 128.896 153.13C130.25 153.274 131.234 154.49 131.085 155.85C131.074 155.944 130.04 165.558 128.791 176.665C128.763 176.898 128.708 177.124 128.614 177.34C126.159 183.217 123.367 190.139 122.09 194.722H122.754C124.119 194.722 125.225 195.827 125.225 197.193C125.225 198.559 124.119 199.664 122.754 199.664L122.748 199.659Z" fill="#2A2C35"/>
<path d="M124.898 30.9766L96.1106 59.7638C94.6621 91.6692 94.7837 125.183 96.1106 159.936H191.29C189.405 115.094 189.228 71.9322 191.29 30.9821H124.892L124.898 30.9766Z" fill="white"/>
<path d="M191.295 160.423H96.1156C95.8502 160.423 95.6346 160.212 95.6235 159.947C94.2414 123.868 94.2414 90.1489 95.6235 59.7362C95.629 59.6146 95.6788 59.4985 95.7673 59.41L124.555 30.6227C124.649 30.5288 124.77 30.479 124.903 30.479H191.301C191.434 30.479 191.566 30.5343 191.66 30.6338C191.754 30.7333 191.804 30.866 191.799 30.9987C189.814 70.4395 189.814 112.611 191.799 159.908C191.804 160.041 191.754 160.174 191.66 160.273C191.566 160.367 191.439 160.423 191.306 160.423H191.295ZM96.591 159.433H190.781C188.824 112.517 188.824 70.6496 190.781 31.4631H125.107L96.6021 59.9684C95.2365 90.171 95.2365 123.63 96.591 159.433Z" fill="#2A2C35"/>
<path d="M174.23 146.236H163.847C163.642 146.236 163.477 146.07 163.477 145.866C163.477 145.661 163.642 145.495 163.847 145.495H174.23C174.434 145.495 174.6 145.661 174.6 145.866C174.6 146.07 174.434 146.236 174.23 146.236Z" fill="#847F99"/>
<path d="M159.546 146.236H113.178C112.973 146.236 112.808 146.07 112.808 145.866C112.808 145.661 112.973 145.495 113.178 145.495H159.546C159.751 145.495 159.917 145.661 159.917 145.866C159.917 146.07 159.751 146.236 159.546 146.236Z" fill="#847F99"/>
<path d="M130.466 90.7956C130.355 88.3907 128.99 86.4834 127.409 86.5386C125.827 86.5939 124.639 88.5953 124.744 91.0002C124.854 93.4051 126.22 95.3125 127.801 95.2572C129.382 95.2019 130.571 93.2006 130.466 90.7956Z" fill="#847F99"/>
<path d="M163.842 90.0438C163.731 87.6388 162.366 85.7315 160.785 85.7868C159.203 85.842 158.015 87.8434 158.12 90.2483C158.23 92.6532 159.596 94.5606 161.177 94.5053C162.758 94.45 163.947 92.4487 163.842 90.0438Z" fill="#847F99"/>
<path d="M138.797 100.664C147.549 97.5405 154.31 101.212 154.625 101.383C154.968 101.576 155.09 102.002 154.896 102.345C154.703 102.682 154.271 102.804 153.929 102.616C153.851 102.572 145.973 98.3256 136.563 103.174C136.215 103.351 135.784 103.218 135.601 102.876C135.419 102.527 135.552 102.102 135.9 101.925C136.884 101.416 137.851 101.001 138.791 100.664H138.797Z" fill="#847F99"/>
<path d="M125.689 68.217C125.927 68.2225 126.165 68.2889 126.386 68.416C127.066 68.8141 127.292 69.6821 126.894 70.3565C122.919 77.0738 116.368 77.4055 116.091 77.4165C115.306 77.4497 114.643 76.8415 114.604 76.062C114.566 75.2825 115.168 74.6301 115.948 74.5969C116.163 74.5859 121.266 74.2708 124.44 68.9136C124.711 68.4602 125.197 68.2115 125.689 68.2225V68.217Z" fill="#847F99"/>
<path d="M159.087 67.4043C159.54 67.3158 160.027 67.4485 160.375 67.7968C164.815 72.2362 169.851 71.3296 170.061 71.2909C170.83 71.1416 171.582 71.6392 171.736 72.4021C171.891 73.165 171.405 73.9059 170.642 74.0607C170.365 74.1104 163.925 75.3433 158.363 69.7816C157.81 69.2287 157.81 68.3331 158.363 67.7857C158.567 67.5812 158.822 67.454 159.087 67.4043Z" fill="#847F99"/>
<path opacity="0.2" d="M189.864 79.8788L185.828 80.2603C184.38 80.3985 183.058 79.4365 182.743 78.0157L177.143 55.927C176.806 54.4122 177.723 52.9029 179.227 52.5048L190.058 49.6631L189.864 79.8788Z" fill="#2A2C35"/>
<path opacity="0.2" d="M127.558 62.3291C124.744 54.6444 121.93 42.3544 124.904 30.9766L96.1172 59.7638C104.25 62.4839 117.22 63.6725 127.558 62.3346V62.3291Z" fill="#2A2C35"/>
<path d="M124.899 59.7583C121.742 50.4371 123.03 37.7656 124.899 30.971L96.1113 59.7583C104.824 61.345 114.56 61.0962 124.899 59.7583Z" fill="white"/>
<path d="M109.28 61.3505C104.476 61.3505 100.08 60.9801 96.0279 60.2448C95.8454 60.2116 95.7017 60.0845 95.6464 59.9076C95.5911 59.7307 95.6409 59.5427 95.768 59.41L124.555 30.6227C124.716 30.4624 124.959 30.4348 125.152 30.5453C125.346 30.6559 125.44 30.8881 125.379 31.1037C123.638 37.4284 122.2 50.2381 125.368 59.598C125.418 59.7362 125.396 59.891 125.318 60.0181C125.241 60.1453 125.108 60.2282 124.964 60.2448C119.281 60.9801 114.079 61.345 109.28 61.345V61.3505ZM97.1391 59.4376C104.785 60.7037 113.67 60.676 124.246 59.3492C121.642 51.095 122.233 40.1651 123.986 32.5909L97.1391 59.4376Z" fill="#2A2C35"/>
<path d="M223.8 101.814C223.435 101.814 223.098 101.571 223.004 101.195L212.864 62.5613C212.748 62.119 213.013 61.6712 213.456 61.5551C213.898 61.439 214.346 61.7044 214.462 62.1467L224.601 100.78C224.717 101.223 224.452 101.67 224.01 101.787C223.938 101.803 223.872 101.814 223.8 101.814Z" fill="#2A2C35"/>
<path d="M242.342 45.2431L241.808 45.3834L242.581 48.3299L243.115 48.1896L242.342 45.2431Z" fill="#847F99"/>
<path d="M240.944 42.0945L238.815 33.9786C238.323 32.0989 236.621 30.7831 234.674 30.7831C234.31 30.7831 233.939 30.8328 233.585 30.9213L228.018 32.3808L227.88 31.8445L233.447 30.385C233.845 30.28 234.26 30.2247 234.674 30.2247C236.869 30.2247 238.788 31.7063 239.346 33.8293L241.475 41.9452L240.938 42.0835L240.944 42.0945Z" fill="#847F99"/>
<path d="M233.944 32.278L181.233 46.1065C179.685 46.5125 178.76 48.0962 179.166 49.6438L185.837 75.0717C186.243 76.6193 187.826 77.5447 189.374 77.1387L242.085 63.3101C243.633 62.9041 244.558 61.3204 244.152 59.7729L237.481 34.345C237.075 32.7974 235.492 31.872 233.944 32.278Z" fill="#847F99"/>
<path d="M194.601 56.2274L199.864 54.8588L200.216 56.2146L196.922 57.0716L197.184 58.0821L200.241 57.2891L200.58 58.5874L197.523 59.3804L197.85 60.6339L201.239 59.7514L201.617 61.1904L196.257 62.5846L194.607 56.2274H194.601Z" fill="white"/>
<path d="M202.698 60.9026L201.048 54.5454L204.322 53.6948C204.93 53.5349 205.403 53.4709 205.755 53.4901C206.1 53.5093 206.414 53.6372 206.682 53.8675C206.951 54.0977 207.136 54.4175 207.245 54.8204C207.335 55.1721 207.341 55.4983 207.258 55.7925C207.175 56.0867 207.021 56.3489 206.797 56.5792C206.657 56.7263 206.446 56.867 206.171 57.0077C206.426 57.0269 206.618 57.0588 206.74 57.11C206.823 57.142 206.957 57.2251 207.143 57.3594C207.322 57.4937 207.45 57.6025 207.52 57.6856L208.946 59.2781L206.727 59.8537L205.173 58.1844C204.975 57.967 204.815 57.8327 204.687 57.7879C204.521 57.724 204.348 57.7176 204.169 57.7687L203.996 57.8135L204.668 60.3909L202.698 60.9026ZM203.689 56.6111L204.521 56.3937C204.61 56.3681 204.776 56.2978 205.019 56.1698C205.141 56.1059 205.231 56.0164 205.288 55.8884C205.346 55.7605 205.352 55.6262 205.314 55.4855C205.263 55.2809 205.154 55.1402 204.994 55.0634C204.834 54.9867 204.578 54.9995 204.22 55.089L203.357 55.3128L203.696 56.6047L203.689 56.6111Z" fill="white"/>
<path d="M209.598 59.1119L207.948 52.7611L211.223 51.9105C211.83 51.7506 212.31 51.6866 212.655 51.7058C213.001 51.725 213.314 51.8529 213.583 52.0832C213.851 52.3134 214.037 52.6332 214.146 53.0361C214.235 53.3878 214.241 53.714 214.158 54.0082C214.075 54.3024 213.922 54.5646 213.698 54.7885C213.557 54.9356 213.346 55.0763 213.071 55.217C213.327 55.2362 213.519 55.2681 213.64 55.3193C213.723 55.3513 213.858 55.4344 214.043 55.5687C214.222 55.703 214.35 55.8118 214.421 55.8949L215.847 57.4874L213.627 58.063L212.073 56.3938C211.875 56.1763 211.715 56.042 211.587 55.9972C211.421 55.9333 211.248 55.9269 211.069 55.9716L210.897 56.0164L211.568 58.5938L209.598 59.1055V59.1119ZM210.59 54.8204L211.421 54.603C211.511 54.5774 211.677 54.5071 211.92 54.3792C212.041 54.3216 212.131 54.2257 212.188 54.0978C212.246 53.9698 212.252 53.8355 212.214 53.6948C212.163 53.4902 212.054 53.3495 211.894 53.2727C211.734 53.196 211.479 53.2088 211.12 53.2983L210.257 53.5221L210.596 54.8141L210.59 54.8204Z" fill="white"/>
<path d="M215.259 54.2512C214.99 53.2151 215.067 52.3325 215.495 51.6035C215.924 50.8744 216.653 50.3755 217.683 50.1069C218.738 49.8319 219.627 49.9022 220.35 50.3243C221.072 50.7401 221.565 51.4628 221.827 52.486C222.019 53.2279 222.051 53.8739 221.929 54.4111C221.801 54.9547 221.539 55.4152 221.136 55.8053C220.733 56.1955 220.177 56.4769 219.474 56.6623C218.757 56.8478 218.137 56.8862 217.606 56.7838C217.075 56.6815 216.602 56.4193 216.18 55.9972C215.758 55.5815 215.451 54.9995 215.259 54.2576V54.2512ZM217.222 53.7524C217.389 54.3919 217.625 54.8268 217.939 55.0443C218.252 55.2617 218.61 55.3193 219.019 55.2105C219.442 55.1018 219.729 54.878 219.889 54.5454C220.049 54.2128 220.036 53.6884 219.851 52.9785C219.697 52.3773 219.461 51.9744 219.147 51.7633C218.834 51.5523 218.469 51.4947 218.06 51.6035C217.664 51.7058 217.382 51.9296 217.216 52.275C217.05 52.6139 217.05 53.1128 217.216 53.7588L217.222 53.7524Z" fill="white"/>
<path d="M223.751 55.428L222.101 49.0708L225.375 48.2202C225.983 48.0603 226.456 47.9964 226.808 48.0156C227.153 48.0348 227.466 48.1627 227.735 48.3929C228.004 48.6231 228.189 48.9429 228.298 49.3458C228.387 49.6976 228.394 50.0238 228.311 50.318C228.228 50.6122 228.074 50.8744 227.85 51.1046C227.709 51.2517 227.498 51.3924 227.223 51.5331C227.479 51.5523 227.671 51.5843 227.793 51.6354C227.876 51.6674 228.01 51.7506 228.196 51.8849C228.375 52.0192 228.503 52.1279 228.573 52.211L229.999 53.8035L227.78 54.3791L226.226 52.7099C226.027 52.4925 225.868 52.3581 225.746 52.3134C225.58 52.2494 225.407 52.243 225.228 52.2878L225.055 52.3326L225.727 54.91L223.757 55.4216L223.751 55.428ZM224.742 51.1366L225.567 50.9191C225.657 50.8936 225.823 50.8232 226.066 50.6953C226.187 50.6313 226.277 50.5418 226.334 50.4139C226.386 50.286 226.398 50.1517 226.36 50.011C226.309 49.8063 226.2 49.6656 226.04 49.5889C225.88 49.5121 225.625 49.5249 225.266 49.6145L224.403 49.8383L224.742 51.1302V51.1366Z" fill="white"/>
</svg>
