<svg width="36" height="36" viewBox="0 0 36 36" fill="none" xmlns="http://www.w3.org/2000/svg">
<g id="blockchain-3 2">
<g id="Layer 47 copy">
<path id="Vector" d="M24.6598 13.284V10.44H25.0198C25.163 10.44 25.3003 10.3831 25.4016 10.2818C25.5029 10.1806 25.5598 10.0432 25.5598 9.89999C25.5598 9.75678 25.5029 9.61943 25.4016 9.51816C25.3003 9.41689 25.163 9.35999 25.0198 9.35999H24.6598V6.06599C24.6576 5.96666 24.6292 5.86967 24.5773 5.78492C24.5255 5.70018 24.4521 5.6307 24.3646 5.58359L18.2446 2.44439C18.1689 2.40525 18.085 2.38483 17.9998 2.38483C17.9146 2.38483 17.8306 2.40525 17.755 2.44439L11.635 5.58359C11.5475 5.6307 11.4741 5.70018 11.4222 5.78492C11.3704 5.86967 11.3419 5.96666 11.3398 6.06599V9.35999H10.9798C10.8366 9.35999 10.6992 9.41689 10.5979 9.51816C10.4967 9.61943 10.4398 9.75678 10.4398 9.89999C10.4398 10.0432 10.4967 10.1806 10.5979 10.2818C10.6992 10.3831 10.8366 10.44 10.9798 10.44H11.3398V13.284C11.34 13.3837 11.3676 13.4815 11.4197 13.5666C11.4718 13.6517 11.5462 13.7208 11.635 13.7664L17.755 16.9056C17.8312 16.9428 17.9149 16.9622 17.9998 16.9622C18.0846 16.9622 18.1683 16.9428 18.2446 16.9056L24.3646 13.7664C24.4533 13.7208 24.5278 13.6517 24.5798 13.5666C24.6319 13.4815 24.6596 13.3837 24.6598 13.284ZM17.9998 3.53159L22.9354 6.05159L17.9998 8.59679L13.0642 6.07679L17.9998 3.53159ZM17.4598 15.5412L12.4198 12.96V6.94799L17.4598 9.53279V15.5412ZM23.5798 12.96L18.5398 15.5448V9.53279L23.5798 6.94799V12.96ZM1.55498 30.4164L7.67498 33.5556C7.75184 33.5929 7.83615 33.6122 7.92158 33.6122C8.007 33.6122 8.09131 33.5929 8.16818 33.5556L14.2882 30.4164C14.3769 30.3708 14.4514 30.3017 14.5034 30.2166C14.5555 30.1315 14.5832 30.0337 14.5834 29.934V27.54H15.8398C15.983 27.54 16.1203 27.4831 16.2216 27.3818C16.3229 27.2806 16.3798 27.1432 16.3798 27C16.3798 26.8568 16.3229 26.7194 16.2216 26.6182C16.1203 26.5169 15.983 26.46 15.8398 26.46H14.5798V22.716C14.5776 22.6167 14.5492 22.5197 14.4973 22.4349C14.4455 22.3502 14.3721 22.2807 14.2846 22.2336L8.45978 19.2456V18.6768C8.45978 18.5336 8.40288 18.3962 8.30161 18.295C8.20034 18.1937 8.06299 18.1368 7.91978 18.1368C7.77656 18.1368 7.63921 18.1937 7.53794 18.295C7.43667 18.3962 7.37978 18.5336 7.37978 18.6768V19.2456L1.55498 22.2336C1.4675 22.2807 1.39408 22.3502 1.34222 22.4349C1.29036 22.5197 1.26191 22.6167 1.25978 22.716V29.934C1.25916 30.0339 1.28648 30.132 1.33863 30.2173C1.39079 30.3025 1.46572 30.3715 1.55498 30.4164ZM7.37978 32.1912L2.33978 29.6064V23.598L7.37978 26.1828V32.1912ZM13.4998 29.6064L8.45978 32.1912V26.1828L13.4998 23.598V29.6064ZM7.91978 20.1816L12.8554 22.7016L7.91978 25.2468L2.98418 22.7268L7.91978 20.1816ZM34.7038 22.5288C34.6566 22.4019 34.5643 22.2968 34.4446 22.2336L28.6198 19.2456V18.6768C28.6198 18.5336 28.5629 18.3962 28.4616 18.295C28.3603 18.1937 28.223 18.1368 28.0798 18.1368C27.9366 18.1368 27.7992 18.1937 27.6979 18.295C27.5967 18.3962 27.5398 18.5336 27.5398 18.6768V19.2456L21.715 22.2336C21.6275 22.2807 21.5541 22.3502 21.5022 22.4349C21.4504 22.5197 21.4219 22.6167 21.4198 22.716V26.46H21.2398C21.0966 26.46 20.9592 26.5169 20.8579 26.6182C20.7567 26.7194 20.6998 26.8568 20.6998 27C20.6998 27.1432 20.7567 27.2806 20.8579 27.3818C20.9592 27.4831 21.0966 27.54 21.2398 27.54H21.4198V29.934C21.42 30.0337 21.4476 30.1315 21.4997 30.2166C21.5518 30.3017 21.6262 30.3708 21.715 30.4164L27.835 33.5556C27.9118 33.5929 27.9962 33.6122 28.0816 33.6122C28.167 33.6122 28.2513 33.5929 28.3282 33.5556L34.4482 30.4164C34.5374 30.3715 34.6124 30.3025 34.6645 30.2173C34.7167 30.132 34.744 30.0339 34.7434 29.934V22.716C34.7432 22.6515 34.7297 22.5878 34.7038 22.5288ZM28.0798 20.1816L33.0154 22.7016L28.0798 25.2468L23.1442 22.7268L28.0798 20.1816ZM27.5398 32.1912L22.4998 29.6064V23.598L27.5398 26.1828V32.1912ZM33.6598 29.6064L28.6198 32.1912V26.1828L33.6598 23.598V29.6064ZM8.45978 13.95C8.45978 14.0932 8.40288 14.2306 8.30161 14.3318C8.20034 14.4331 8.06299 14.49 7.91978 14.49C7.77656 14.49 7.63921 14.4331 7.53794 14.3318C7.43667 14.2306 7.37978 14.0932 7.37978 13.95V12.3768C7.37978 12.2336 7.43667 12.0962 7.53794 11.995C7.63921 11.8937 7.77656 11.8368 7.91978 11.8368C8.06299 11.8368 8.20034 11.8937 8.30161 11.995C8.40288 12.0962 8.45978 12.2336 8.45978 12.3768V13.95ZM8.45978 15.5232V17.1C8.45978 17.2432 8.40288 17.3806 8.30161 17.4818C8.20034 17.5831 8.06299 17.64 7.91978 17.64C7.77656 17.64 7.63921 17.5831 7.53794 17.4818C7.43667 17.3806 7.37978 17.2432 7.37978 17.1V15.5232C7.37978 15.38 7.43667 15.2426 7.53794 15.1414C7.63921 15.0401 7.77656 14.9832 7.91978 14.9832C8.06299 14.9832 8.20034 15.0401 8.30161 15.1414C8.40288 15.2426 8.45978 15.38 8.45978 15.5232ZM8.45978 10.8C8.45978 10.9432 8.40288 11.0806 8.30161 11.1818C8.20034 11.2831 8.06299 11.34 7.91978 11.34C7.77656 11.34 7.63921 11.2831 7.53794 11.1818C7.43667 11.0806 7.37978 10.9432 7.37978 10.8V9.89999C7.37978 9.75678 7.43667 9.61943 7.53794 9.51816C7.63921 9.41689 7.77656 9.35999 7.91978 9.35999H8.81978C8.96299 9.35999 9.10034 9.41689 9.20161 9.51816C9.30288 9.61943 9.35978 9.75678 9.35978 9.89999C9.35978 10.0432 9.30288 10.1806 9.20161 10.2818C9.10034 10.3831 8.96299 10.44 8.81978 10.44H8.45978V10.8ZM28.6198 15.5232V17.1C28.6198 17.2432 28.5629 17.3806 28.4616 17.4818C28.3603 17.5831 28.223 17.64 28.0798 17.64C27.9366 17.64 27.7992 17.5831 27.6979 17.4818C27.5967 17.3806 27.5398 17.2432 27.5398 17.1V15.5232C27.5398 15.38 27.5967 15.2426 27.6979 15.1414C27.7992 15.0401 27.9366 14.9832 28.0798 14.9832C28.223 14.9832 28.3603 15.0401 28.4616 15.1414C28.5629 15.2426 28.6198 15.38 28.6198 15.5232ZM28.6198 13.95C28.6198 14.0932 28.5629 14.2306 28.4616 14.3318C28.3603 14.4331 28.223 14.49 28.0798 14.49C27.9366 14.49 27.7992 14.4331 27.6979 14.3318C27.5967 14.2306 27.5398 14.0932 27.5398 13.95V12.3768C27.5398 12.2336 27.5967 12.0962 27.6979 11.995C27.7992 11.8937 27.9366 11.8368 28.0798 11.8368C28.223 11.8368 28.3603 11.8937 28.4616 11.995C28.5629 12.0962 28.6198 12.2336 28.6198 12.3768V13.95ZM28.6198 10.8C28.6198 10.9432 28.5629 11.0806 28.4616 11.1818C28.3603 11.2831 28.223 11.34 28.0798 11.34C27.9366 11.34 27.7992 11.2831 27.6979 11.1818C27.5967 11.0806 27.5398 10.9432 27.5398 10.8V10.44H27.1798C27.0366 10.44 26.8992 10.3831 26.7979 10.2818C26.6967 10.1806 26.6398 10.0432 26.6398 9.89999C26.6398 9.75678 26.6967 9.61943 26.7979 9.51816C26.8992 9.41689 27.0366 9.35999 27.1798 9.35999H28.0798C28.223 9.35999 28.3603 9.41689 28.4616 9.51816C28.5629 9.61943 28.6198 9.75678 28.6198 9.89999V10.8ZM19.4398 26.46C19.583 26.46 19.7203 26.5169 19.8216 26.6182C19.9229 26.7194 19.9798 26.8568 19.9798 27C19.9798 27.1432 19.9229 27.2806 19.8216 27.3818C19.7203 27.4831 19.583 27.54 19.4398 27.54H17.6398C17.4966 27.54 17.3592 27.4831 17.2579 27.3818C17.1567 27.2806 17.0998 27.1432 17.0998 27C17.0998 26.8568 17.1567 26.7194 17.2579 26.6182C17.3592 26.5169 17.4966 26.46 17.6398 26.46H19.4398ZM17.9674 7.19999C17.9019 7.32557 17.7901 7.42066 17.6556 7.46504C17.5212 7.50941 17.3747 7.49957 17.2474 7.43759L15.5122 6.55559C15.4455 6.52562 15.3855 6.48242 15.336 6.42859C15.2865 6.37476 15.2484 6.31143 15.2241 6.24245C15.1998 6.17347 15.1898 6.10028 15.1946 6.0273C15.1995 5.95432 15.2191 5.88309 15.2523 5.81792C15.2855 5.75275 15.3316 5.69501 15.3877 5.64818C15.4439 5.60136 15.509 5.56644 15.5791 5.54554C15.6492 5.52464 15.7228 5.51819 15.7955 5.52659C15.8681 5.53499 15.9383 5.55805 16.0018 5.59439L17.7298 6.47999C17.8567 6.54402 17.953 6.65582 17.9976 6.79082C18.0421 6.92583 18.0313 7.073 17.9674 7.19999ZM29.9158 30.132C29.8549 30.0029 29.8471 29.8551 29.8943 29.7204C29.9414 29.5857 30.0397 29.4749 30.1678 29.412L30.9598 29.0196L31.8994 28.566V26.7444C31.8994 26.6012 31.9563 26.4638 32.0575 26.3626C32.1588 26.2613 32.2962 26.2044 32.4394 26.2044C32.5826 26.2044 32.7199 26.2613 32.8212 26.3626C32.9225 26.4638 32.9794 26.6012 32.9794 26.7444V28.9044C32.9787 29.0054 32.9502 29.1043 32.8968 29.1901C32.8434 29.2759 32.7673 29.3452 32.677 29.3904L30.6286 30.3804C30.5561 30.417 30.4758 30.4355 30.3946 30.4344C30.2947 30.4329 30.1972 30.4038 30.1127 30.3505C30.0282 30.2971 29.9601 30.2215 29.9158 30.132Z" fill="#53C5B0"/>
</g>
</g>
</svg>
