<svg width="48" height="48" viewBox="0 0 48 48" fill="none" xmlns="http://www.w3.org/2000/svg">
<g clip-path="url(#clip0_174_761)">
<path d="M36 0.000366211H14C10.134 0.000366211 6.99994 3.13434 6.99994 7.0004V47.0004C7.00003 47.4051 7.24397 47.7698 7.61794 47.9244C7.73897 47.9749 7.86881 48.0006 7.99997 48.0005C8.26538 48.0009 8.5201 47.8959 8.70797 47.7084L20 36.4004C24.42 40.7624 30.51 46.8004 31.164 47.5444C31.4697 48.0043 32.0904 48.1294 32.5504 47.8236C32.7168 47.713 32.8462 47.5551 32.922 47.3704C32.9864 47.2583 33.0137 47.1289 33 47.0003V5.00033C33 3.34349 34.3432 2.00033 36 2.00033C36.5523 2.00033 37 1.55259 37 1.0003C37 0.448023 36.5523 0.000366211 36 0.000366211Z" fill="#C8C8C8"/>
<path d="M37 0.000366211C39.2092 0.000366211 41.0001 1.79127 41.0001 4.0004V7.0004C41.0001 7.55268 40.5523 8.00043 40 8.00043H33V4.0004C33 1.79127 34.7909 0.000366211 37 0.000366211Z" fill="#847F99"/>
</g>
<defs>
<clipPath id="clip0_174_761">
<rect width="48" height="48" fill="white" transform="translate(0 0.000366211)"/>
</clipPath>
</defs>
</svg>
