<svg width="24" height="24" viewBox="0 0 24 24" fill="none" xmlns="http://www.w3.org/2000/svg">
<path d="M21.75 3H18.75V2.25C18.75 2.05109 18.671 1.86032 18.5303 1.71967C18.3897 1.57902 18.1989 1.5 18 1.5C17.8011 1.5 17.6103 1.57902 17.4697 1.71967C17.329 1.86032 17.25 2.05109 17.25 2.25V3H6.75V2.25C6.75 2.05109 6.67098 1.86032 6.53033 1.71967C6.38968 1.57902 6.19891 1.5 6 1.5C5.80109 1.5 5.61032 1.57902 5.46967 1.71967C5.32902 1.86032 5.25 2.05109 5.25 2.25V3H2.25C2.05109 3 1.86032 3.07902 1.71967 3.21967C1.57902 3.36032 1.5 3.55109 1.5 3.75V8.25C1.5 8.44891 1.57902 8.63968 1.71967 8.78033C1.86032 8.92098 2.05109 9 2.25 9H3V21.75C3 21.9489 3.07902 22.1397 3.21967 22.2803C3.36032 22.421 3.55109 22.5 3.75 22.5H20.25C20.4489 22.5 20.6397 22.421 20.7803 22.2803C20.921 22.1397 21 21.9489 21 21.75V9H21.75C21.9489 9 22.1397 8.92098 22.2803 8.78033C22.421 8.63968 22.5 8.44891 22.5 8.25V3.75C22.5 3.55109 22.421 3.36032 22.2803 3.21967C22.1397 3.07902 21.9489 3 21.75 3ZM19.5 21H4.5V9H19.5V21ZM21 7.5H3V4.5H5.25V5.25C5.25 5.44891 5.32902 5.63968 5.46967 5.78033C5.61032 5.92098 5.80109 6 6 6C6.19891 6 6.38968 5.92098 6.53033 5.78033C6.67098 5.63968 6.75 5.44891 6.75 5.25V4.5H17.25V5.25C17.25 5.44891 17.329 5.63968 17.4697 5.78033C17.6103 5.92098 17.8011 6 18 6C18.1989 6 18.3897 5.92098 18.5303 5.78033C18.671 5.63968 18.75 5.44891 18.75 5.25V4.5H21V7.5Z" fill="#2A2C35"/>
<path d="M10.5001 17.2497C10.3012 17.2497 10.1104 17.3287 9.96978 17.4694C9.82913 17.61 9.75011 17.8008 9.75011 17.9997C9.75011 18.1986 9.82913 18.3894 9.96978 18.53C10.1104 18.6707 10.3012 18.7497 10.5001 18.7497H13.5001C13.699 18.7497 13.8898 18.6707 14.0304 18.53C14.1711 18.3894 14.2501 18.1986 14.2501 17.9997C14.2501 17.8008 14.1711 17.61 14.0304 17.4694C13.8898 17.3287 13.699 17.2497 13.5001 17.2497H12.7501V11.9997C12.7497 11.8718 12.7167 11.7462 12.6541 11.6347C12.5915 11.5233 12.5014 11.4296 12.3924 11.3628C12.2835 11.2959 12.1592 11.258 12.0315 11.2526C11.9038 11.2473 11.7768 11.2747 11.6626 11.3322L10.1626 12.0822C10.0674 12.1218 9.98139 12.1807 9.90996 12.2551C9.83852 12.3295 9.7832 12.4178 9.74744 12.5145C9.71169 12.6113 9.69627 12.7143 9.70215 12.8173C9.70803 12.9203 9.73508 13.0209 9.78162 13.113C9.82815 13.205 9.89317 13.2865 9.97261 13.3522C10.0521 13.418 10.1442 13.4667 10.2433 13.4952C10.3424 13.5238 10.4463 13.5316 10.5486 13.5182C10.6509 13.5047 10.7492 13.4704 10.8376 13.4172L11.2501 13.2147V17.2497H10.5001Z" fill="#2A2C35"/>
</svg>
