<svg width="20" height="21" viewBox="0 0 20 21" fill="none" xmlns="http://www.w3.org/2000/svg">
<path d="M10.0001 2.16669C5.40841 2.16669 1.66675 5.90835 1.66675 10.5C1.66675 15.0917 5.40841 18.8334 10.0001 18.8334C14.5917 18.8334 18.3334 15.0917 18.3334 10.5C18.3334 5.90835 14.5917 2.16669 10.0001 2.16669ZM12.8001 12.4167C13.0417 12.6584 13.0417 13.0584 12.8001 13.3C12.6751 13.425 12.5167 13.4834 12.3584 13.4834C12.2001 13.4834 12.0417 13.425 11.9167 13.3L10.0001 11.3834L8.08341 13.3C7.95841 13.425 7.80008 13.4834 7.64175 13.4834C7.48342 13.4834 7.32508 13.425 7.20008 13.3C6.95842 13.0584 6.95842 12.6584 7.20008 12.4167L9.11675 10.5L7.20008 8.58335C6.95842 8.34169 6.95842 7.94169 7.20008 7.70002C7.44175 7.45835 7.84175 7.45835 8.08341 7.70002L10.0001 9.61669L11.9167 7.70002C12.1584 7.45835 12.5584 7.45835 12.8001 7.70002C13.0417 7.94169 13.0417 8.34169 12.8001 8.58335L10.8834 10.5L12.8001 12.4167Z" fill="#F0F3F4"/>
<path d="M12.8001 12.4167C13.0417 12.6584 13.0417 13.0584 12.8001 13.3C12.6751 13.425 12.5167 13.4834 12.3584 13.4834C12.2001 13.4834 12.0417 13.425 11.9167 13.3L10.0001 11.3834L8.08341 13.3C7.95841 13.425 7.80008 13.4834 7.64175 13.4834C7.48342 13.4834 7.32508 13.425 7.20008 13.3C6.95842 13.0584 6.95842 12.6584 7.20008 12.4167L9.11675 10.5L7.20008 8.58335C6.95842 8.34169 6.95842 7.94169 7.20008 7.70002C7.44175 7.45835 7.84175 7.45835 8.08341 7.70002L10.0001 9.61669L11.9167 7.70002C12.1584 7.45835 12.5584 7.45835 12.8001 7.70002C13.0417 7.94169 13.0417 8.34169 12.8001 8.58335L10.8834 10.5L12.8001 12.4167Z" fill="#2A2C35"/>
</svg>
