<svg width="16" height="16" viewBox="0 0 16 16" fill="none" xmlns="http://www.w3.org/2000/svg">
<path d="M2.26059 14.9929C1.91334 15.0131 1.57184 14.8976 1.30809 14.6709C0.787928 14.1476 0.787928 13.3025 1.30809 12.7793L12.698 1.38935C13.239 0.883107 14.0879 0.911249 14.5942 1.45227C15.052 1.9415 15.0787 2.69348 14.6567 3.2139L3.19966 14.6709C2.93931 14.8944 2.60329 15.0096 2.26059 14.9929Z" fill="white"/>
<path d="M13.638 14.9932C13.286 14.9917 12.9487 14.852 12.6988 14.6042L1.30891 3.21421C0.82701 2.65146 0.892527 1.80454 1.45528 1.3226C1.95755 0.892468 2.6983 0.892468 3.20053 1.3226L14.6575 12.7125C15.1984 13.2189 15.2264 14.0679 14.72 14.6088C14.6998 14.6303 14.679 14.6511 14.6575 14.6712C14.377 14.9152 14.0078 15.0318 13.638 14.9932Z" fill="white"/>
</svg>
