<svg width="36" height="36" viewBox="0 0 36 36" fill="none" xmlns="http://www.w3.org/2000/svg">
<g id="coins-2 1">
<g id="Group">
<g id="Group_2">
<path id="Vector" d="M20.7272 8.69812V6.36267C20.7272 1.87911 3 1.87911 3 6.36267V20.0228C3 21.7853 5.75899 22.8841 9.07811 23.2747C7.86407 23.8191 7.09089 24.5546 7.09089 25.4868V29.5849C7.09089 31.8267 11.55 32.9999 15.9545 32.9999C20.3591 32.9999 24.8181 31.8266 24.8181 29.5849V27.5245C28.9892 27.4099 32.9999 26.2469 32.9999 24.1208V11.8268C32.9999 8.99624 25.9369 7.95479 20.7272 8.69812ZM11.8636 4.36363C16.7163 4.36363 19.3636 5.71458 19.3636 6.40907C19.3636 7.10357 16.7162 8.45452 11.8636 8.45452C7.01106 8.45452 4.36367 7.10357 4.36367 6.40907C4.36361 5.71464 7.01099 4.36363 11.8636 4.36363ZM4.36361 8.30642C6.01806 9.30217 8.94861 9.81819 11.8636 9.81819C14.7785 9.81819 17.7091 9.30217 19.3636 8.30642V8.98397C16.9941 9.50946 15.2727 10.4691 15.2727 11.8636V12.267C14.2041 12.4385 13.0507 12.5454 11.8636 12.5454C7.01099 12.5454 4.36367 11.1945 4.36367 10.5L4.36361 8.30642ZM16.6363 21.9427C16.766 22.0208 16.901 22.0966 17.046 22.1687C16.9095 22.163 16.7733 22.1575 16.6363 22.1539V21.9427ZM4.36361 12.3973C6.01806 13.3931 8.94861 13.9091 11.8636 13.9091C13.0438 13.9091 14.191 13.8031 15.2726 13.6415V17.0398C14.2041 17.2112 13.0506 17.3181 11.8636 17.3181C7.01093 17.3181 4.36361 15.9672 4.36361 15.2727V12.3973ZM4.36361 20.0454V17.17C6.01806 18.1658 8.94861 18.6818 11.8636 18.6818C13.0438 18.6818 14.191 18.5758 15.2726 18.4142V21.8125C14.2041 21.9839 13.0506 22.0909 11.8636 22.0909C7.01099 22.0909 4.36361 20.7399 4.36361 20.0454ZM23.4545 29.5908C23.4545 30.2853 20.8071 31.6363 15.9545 31.6363C11.102 31.6363 8.4545 30.2853 8.4545 29.5908V27.3972C10.1089 28.393 13.0395 28.909 15.9545 28.909C18.7447 28.909 21.553 28.4374 23.2395 27.5239C23.3103 27.5266 23.3833 27.5269 23.4544 27.5291V29.5908H23.4545ZM15.9545 27.5454C11.1019 27.5454 8.45457 26.1944 8.45457 25.4999C8.45457 24.8054 11.102 23.4545 15.9545 23.4545C20.8071 23.4545 23.4545 24.8054 23.4545 25.4999C23.4545 26.1944 20.8071 27.5454 15.9545 27.5454ZM31.6363 24.1363C31.6363 24.7962 29.2203 26.0353 24.8181 26.1581V25.4999C24.8181 24.6481 24.1734 23.9595 23.1336 23.4319C23.467 23.4454 23.8014 23.4545 24.1362 23.4545C27.0512 23.4545 29.9818 22.9385 31.6362 21.9427V24.1363H31.6363ZM31.6363 20.0454C31.6363 20.7399 28.9889 22.0909 24.1363 22.0909C19.2837 22.0909 16.6364 20.7399 16.6364 20.0454V17.8518C18.2907 18.8476 21.2213 19.3636 24.1363 19.3636C27.0513 19.3636 29.9819 18.8476 31.6363 17.8518V20.0454ZM31.6363 15.9545C31.6363 16.649 28.9889 18 24.1363 18C19.2837 18 16.6364 16.649 16.6364 15.9545V13.7609C18.2907 14.7567 21.2213 15.2727 24.1363 15.2727C27.0513 15.2727 29.9819 14.7567 31.6363 13.7609V15.9545ZM24.1363 13.9091C19.2837 13.9091 16.6364 12.5581 16.6364 11.8636C16.6364 11.1691 19.2837 9.81819 24.1363 9.81819C28.9889 9.81819 31.6363 11.1691 31.6363 11.8636C31.6363 12.5581 28.9889 13.9091 24.1363 13.9091Z" fill="#53C5B0"/>
</g>
</g>
</g>
</svg>
