<svg width="25" height="24" viewBox="0 0 25 24" fill="none" xmlns="http://www.w3.org/2000/svg">
<path d="M2.5 2H22.5" stroke="#2A2C35" stroke-width="1.5" stroke-linecap="round"/>
<path d="M9.5 10.5L10.7929 9.20711C11.1262 8.87377 11.2929 8.70711 11.5 8.70711C11.7071 8.70711 11.8738 8.87377 12.2071 9.20711L12.7929 9.79289C13.1262 10.1262 13.2929 10.2929 13.5 10.2929C13.7071 10.2929 13.8738 10.1262 14.2071 9.79289L15.5 8.5" stroke="#2A2C35" stroke-width="1.5" stroke-linecap="round"/>
<path d="M12.5 21L12.5 17" stroke="#2A2C35" stroke-width="1.5" stroke-linecap="round"/>
<path d="M10.5 22L12.5 21" stroke="#2A2C35" stroke-width="1.5" stroke-linecap="round"/>
<path d="M14.5 22L12.5 21" stroke="#2A2C35" stroke-width="1.5" stroke-linecap="round"/>
<path d="M20.5 2V10.5C20.5 13.5641 20.5 15.0962 19.4958 16.0481C18.4916 17 16.8753 17 13.6429 17H11.3571C8.12465 17 6.50841 17 5.50421 16.0481C4.5 15.0962 4.5 13.5641 4.5 10.5V2" stroke="#2A2C35" stroke-width="1.5"/>
</svg>
