<svg width="36" height="36" viewBox="0 0 36 36" fill="none" xmlns="http://www.w3.org/2000/svg">
<g id="decentralized 1" clip-path="url(#clip0_949_25010)">
<path id="Vector" d="M20.25 2.25C20.25 1.00912 19.2409 0 18 0C16.7591 0 15.75 1.00912 15.75 2.25C15.75 3.49088 16.7591 4.5 18 4.5C19.2409 4.5 20.25 3.49088 20.25 2.25ZM18 3.375C17.3796 3.375 16.875 2.87044 16.875 2.25C16.875 1.62956 17.3796 1.125 18 1.125C18.6204 1.125 19.125 1.62956 19.125 2.25C19.125 2.87044 18.6204 3.375 18 3.375Z" fill="#53C5B0"/>
<path id="Vector_2" d="M15.75 33.75C15.75 34.9909 16.7591 36 18 36C19.2409 36 20.25 34.9909 20.25 33.75C20.25 32.5091 19.2409 31.5 18 31.5C16.7591 31.5 15.75 32.5091 15.75 33.75ZM18 32.625C18.6204 32.625 19.125 33.1296 19.125 33.75C19.125 34.3704 18.6204 34.875 18 34.875C17.3796 34.875 16.875 34.3704 16.875 33.75C16.875 33.1296 17.3796 32.625 18 32.625Z" fill="#53C5B0"/>
<path id="Vector_3" d="M33.75 15.75C32.5091 15.75 31.5 16.7591 31.5 18C31.5 19.2409 32.5091 20.25 33.75 20.25C34.9909 20.25 36 19.2409 36 18C36 16.7591 34.9909 15.75 33.75 15.75ZM33.75 19.125C33.1296 19.125 32.625 18.6204 32.625 18C32.625 17.3796 33.1296 16.875 33.75 16.875C34.3704 16.875 34.875 17.3796 34.875 18C34.875 18.6204 34.3704 19.125 33.75 19.125Z" fill="#53C5B0"/>
<path id="Vector_4" d="M29.6477 15.9148L28.8523 16.7102L29.5796 17.4375H26.4088C26.2823 15.5346 25.5263 13.8054 24.3422 12.4532L26.586 10.2094V11.2382H27.711V8.8515C27.711 8.69625 27.648 8.55562 27.5462 8.45381C27.9709 8.87906 28.5362 9.11306 29.1369 9.11306C29.7377 9.11306 30.303 8.87906 30.7282 8.45381C31.6057 7.57688 31.6057 6.14925 30.7282 5.27175C29.8507 4.39425 28.4237 4.39425 27.5462 5.27175C27.1209 5.69644 26.8869 6.26175 26.8869 6.86306C26.8869 7.46381 27.1209 8.02856 27.5462 8.45381C27.4444 8.352 27.3037 8.289 27.1485 8.289H24.7618V9.414H25.7906L23.5468 11.6578C22.1946 10.4738 20.4654 9.71719 18.5625 9.59119V6.42037L19.2898 7.14769L20.0852 6.35231L18.3977 4.66481C18.288 4.55513 18.144 4.5 18 4.5C17.856 4.5 17.712 4.55513 17.6023 4.66481L15.9148 6.35231L16.7102 7.14769L17.4375 6.42037V9.59119C15.5346 9.71775 13.8054 10.4738 12.4532 11.6578L10.2094 9.414H11.2382V8.289H8.8515C8.69625 8.289 8.55562 8.352 8.45381 8.45381C8.87906 8.02913 9.11306 7.46381 9.11306 6.86306C9.11306 6.26231 8.87906 5.697 8.45381 5.27175C7.57631 4.39425 6.14925 4.39425 5.27175 5.27175C4.39425 6.14925 4.39425 7.57688 5.27175 8.45381C5.69644 8.87906 6.26175 9.11306 6.86306 9.11306C7.46381 9.11306 8.02856 8.87906 8.45381 8.45381C8.352 8.55562 8.289 8.69625 8.289 8.8515V11.2382H9.414V10.2094L11.6578 12.4532C10.4738 13.8054 9.71719 15.5346 9.59119 17.4375H6.42037L7.14769 16.7102L6.35231 15.9148L4.66481 17.6023C4.55513 17.712 4.5 17.856 4.5 18C4.5 18.144 4.55513 18.288 4.66481 18.3977L6.35231 20.0852L7.14769 19.2898L6.42037 18.5625H9.59119C9.71775 20.4654 10.4738 22.1946 11.6578 23.5468L9.414 25.7906V24.7618H8.289V27.1485C8.289 27.3037 8.352 27.4444 8.45381 27.5462C7.60388 26.6957 6.12169 26.6963 5.27231 27.5462C4.39481 28.4231 4.39481 29.8507 5.27231 30.7282C5.71106 31.167 6.28706 31.3858 6.86362 31.3858C7.44019 31.3858 8.01562 31.1664 8.45437 30.7282C8.87962 30.3036 9.11362 29.7383 9.11362 29.1369C9.11362 28.5362 8.87906 27.9714 8.45381 27.5462C8.55562 27.648 8.69681 27.711 8.85206 27.711H11.2387V26.586H10.2094L12.4532 24.3422C13.8054 25.5263 15.5346 26.2828 17.4375 26.4088V29.5796L16.7102 28.8523L15.9148 29.6477L17.6023 31.3352C17.712 31.4449 17.856 31.5 18 31.5C18.144 31.5 18.288 31.4449 18.3977 31.3352L20.0852 29.6477L19.2898 28.8523L18.5625 29.5796V26.4088C20.4654 26.2823 22.1946 25.5263 23.5468 24.3422L25.7906 26.586H24.7618V27.711H27.1485C27.3037 27.711 27.4444 27.648 27.5462 27.5462C27.1209 27.9709 26.8869 28.5362 26.8869 29.1369C26.8869 29.7377 27.1209 30.303 27.5462 30.7282C27.9849 31.167 28.5609 31.3858 29.1369 31.3858C29.7129 31.3858 30.2895 31.1664 30.7282 30.7282C31.6057 29.8507 31.6057 28.4231 30.7282 27.5462C29.8783 26.6957 28.3956 26.6957 27.5462 27.5462C27.648 27.4444 27.7116 27.3037 27.7116 27.1485V24.7618H26.5866V25.7906L24.3428 23.5468C25.5268 22.1946 26.2834 20.4654 26.4094 18.5625H29.5802L28.8529 19.2898L29.6483 20.0852L31.3358 18.3977C31.4449 18.288 31.5 18.144 31.5 18C31.5 17.856 31.4449 17.712 31.3352 17.6023L29.6477 15.9148ZM28.3416 6.06769C28.5609 5.84831 28.8489 5.73919 29.1369 5.73919C29.4249 5.73919 29.7129 5.84887 29.9329 6.06769C30.3711 6.50644 30.3716 7.22025 29.9329 7.659C29.5076 8.08425 28.7668 8.08425 28.3416 7.659C28.1289 7.44638 28.0119 7.164 28.0119 6.86362C28.0119 6.56325 28.1289 6.28031 28.3416 6.06769ZM7.65844 7.65844C7.23319 8.08369 6.49238 8.08369 6.06713 7.65844C5.62838 7.21969 5.62894 6.50588 6.06713 6.06713C6.2865 5.84775 6.5745 5.73862 6.86306 5.73862C7.15163 5.73862 7.43906 5.84831 7.65844 6.06713C7.87106 6.27975 7.98806 6.56213 7.98806 6.86306C7.98806 7.164 7.87106 7.44581 7.65844 7.65844ZM7.65844 29.9323C7.21969 30.3705 6.50644 30.3705 6.06713 29.9323C5.62894 29.4936 5.62838 28.7797 6.06713 28.341C6.27975 28.1284 6.56213 28.0114 6.86306 28.0114C7.164 28.0114 7.44581 28.1284 7.65844 28.341C7.87106 28.5536 7.98806 28.836 7.98806 29.1364C7.98806 29.4368 7.87106 29.7197 7.65844 29.9323ZM17.4375 15.1875C17.4375 14.8776 17.6901 14.625 18 14.625C18.3099 14.625 18.5625 14.8776 18.5625 15.1875C18.5625 15.4974 18.3099 15.75 18 15.75C17.6901 15.75 17.4375 15.4974 17.4375 15.1875ZM28.3416 28.3416C28.5542 28.1289 28.8366 28.0119 29.1369 28.0119C29.4373 28.0119 29.7203 28.1289 29.9329 28.3416C30.3716 28.7803 30.3711 29.4941 29.9329 29.9329C29.4941 30.3711 28.7803 30.3711 28.3416 29.9329C28.1289 29.7203 28.0119 29.4379 28.0119 29.1369C28.0119 28.836 28.1289 28.5542 28.3416 28.3416ZM20.8125 24.7483V21.6079L22.3352 20.0852C22.4409 19.98 22.5 19.8366 22.5 19.6875V18.459C23.1531 18.2261 23.625 17.6074 23.625 16.875C23.625 15.9446 22.8679 15.1875 21.9375 15.1875C21.0071 15.1875 20.25 15.9446 20.25 16.875C20.25 17.6074 20.7219 18.2261 21.375 18.459V19.4546L19.8523 20.9773C19.7466 21.0825 19.6875 21.2259 19.6875 21.375V25.1083C19.3219 25.1949 18.9467 25.2546 18.5625 25.2844V16.7715C19.2156 16.5386 19.6875 15.9199 19.6875 15.1875C19.6875 14.2571 18.9304 13.5 18 13.5C17.0696 13.5 16.3125 14.2571 16.3125 15.1875C16.3125 15.9199 16.7844 16.5386 17.4375 16.7715V25.2844C17.0533 25.2551 16.6781 25.1955 16.3125 25.1083V21.375C16.3125 21.2259 16.2534 21.0825 16.1477 20.9773L14.625 19.4546V18.459C15.2781 18.2261 15.75 17.6074 15.75 16.875C15.75 15.9446 14.9929 15.1875 14.0625 15.1875C13.1321 15.1875 12.375 15.9446 12.375 16.875C12.375 17.6074 12.8469 18.2261 13.5 18.459V19.6875C13.5 19.8366 13.5591 19.98 13.6648 20.0852L15.1875 21.6079V24.7483C12.5477 23.6441 10.6875 21.0358 10.6875 18C10.6875 13.968 13.968 10.6875 18 10.6875C22.032 10.6875 25.3125 13.968 25.3125 18C25.3125 21.0358 23.4523 23.6441 20.8125 24.7483ZM21.375 16.875C21.375 16.5651 21.6276 16.3125 21.9375 16.3125C22.2474 16.3125 22.5 16.5651 22.5 16.875C22.5 17.1849 22.2474 17.4375 21.9375 17.4375C21.6276 17.4375 21.375 17.1849 21.375 16.875ZM13.5 16.875C13.5 16.5651 13.7526 16.3125 14.0625 16.3125C14.3724 16.3125 14.625 16.5651 14.625 16.875C14.625 17.1849 14.3724 17.4375 14.0625 17.4375C13.7526 17.4375 13.5 17.1849 13.5 16.875Z" fill="#53C5B0"/>
<path id="Vector_5" d="M2.25 15.75C1.00912 15.75 0 16.7591 0 18C0 19.2409 1.00912 20.25 2.25 20.25C3.49088 20.25 4.5 19.2409 4.5 18C4.5 16.7591 3.49088 15.75 2.25 15.75ZM2.25 19.125C1.62956 19.125 1.125 18.6204 1.125 18C1.125 17.3796 1.62956 16.875 2.25 16.875C2.87044 16.875 3.375 17.3796 3.375 18C3.375 18.6204 2.87044 19.125 2.25 19.125Z" fill="#53C5B0"/>
</g>
<defs>
<clipPath id="clip0_949_25010">
<rect width="36" height="36" fill="white"/>
</clipPath>
</defs>
</svg>
