<svg width="24" height="24" viewBox="0 0 24 24" fill="none" xmlns="http://www.w3.org/2000/svg">
<path d="M12 1C5.92031 1 1 5.91975 1 12C1 18.0796 5.91975 23 12 23C18.0797 23 23 18.0802 23 12C23 5.92031 18.0802 1 12 1ZM12 21.4651C6.78093 21.4651 2.53489 17.2191 2.53489 12C2.53489 6.78089 6.78093 2.53489 12 2.53489C17.2191 2.53489 21.4651 6.78089 21.4651 12C21.4651 17.2191 17.2191 21.4651 12 21.4651Z" fill="#D890F0"/>
<path d="M11.6458 15.1841C10.9824 15.1841 10.4453 15.7369 10.4453 16.4003C10.4453 17.048 10.9666 17.6166 11.6458 17.6166C12.325 17.6166 12.862 17.048 12.862 16.4003C12.862 15.7369 12.3092 15.1841 11.6458 15.1841Z" fill="#D890F0"/>
<path d="M11.85 5.9751C9.71759 5.9751 8.73828 7.2388 8.73828 8.09174C8.73828 8.70777 9.25953 8.99211 9.686 8.99211C10.539 8.99211 10.1915 7.7758 11.8026 7.7758C12.5924 7.7758 13.2243 8.12333 13.2243 8.84994C13.2243 9.70288 12.3397 10.1925 11.8184 10.6348C11.3603 11.0296 10.7601 11.6773 10.7601 13.0357C10.7601 13.8571 10.9813 14.094 11.6289 14.094C12.4028 14.094 12.5608 13.7466 12.5608 13.4464C12.5608 12.625 12.5766 12.1512 13.4454 11.4719C13.8718 11.1403 15.2144 10.0661 15.2144 8.58135C15.2144 7.09658 13.8718 5.9751 11.85 5.9751Z" fill="#D890F0"/>
</svg>
