<svg width="91" height="92" viewBox="0 0 91 92" fill="none" xmlns="http://www.w3.org/2000/svg">
<g filter="url(#filter0_d_162_11465)">
<circle cx="45.5" cy="45" r="45" fill="white"/>
<circle cx="45.5" cy="45" r="44.5" stroke="#2A2C35"/>
</g>
<path d="M46.0303 43.4697C45.8897 43.329 45.6989 43.25 45.5 43.25C45.3011 43.25 45.1103 43.329 44.9697 43.4697L42.4697 45.9697C42.1768 46.2626 42.1768 46.7374 42.4697 47.0303C42.7626 47.3232 43.2374 47.3232 43.5303 47.0303L44.75 45.8107V50C44.75 50.4142 45.0858 50.75 45.5 50.75C45.9142 50.75 46.25 50.4142 46.25 50V45.8107L47.4697 47.0303C47.7626 47.3232 48.2374 47.3232 48.5303 47.0303C48.8232 46.7374 48.8232 46.2626 48.5303 45.9697L46.0303 43.4697Z" fill="#2A2C35"/>
<path fill-rule="evenodd" clip-rule="evenodd" d="M45.5574 34.25H45.4426C43.1342 34.25 41.3252 34.25 39.9137 34.4397C38.469 34.634 37.3289 35.0393 36.4341 35.9341C35.5393 36.8289 35.134 37.969 34.9397 39.4137C34.75 40.8252 34.75 42.6342 34.75 44.9426V45H34.7609C34.75 45.5788 34.75 46.2299 34.75 46.9664V47.0336C34.75 48.4053 34.75 49.4807 34.8206 50.3451C34.8925 51.2252 35.0414 51.9523 35.3767 52.6104C35.928 53.6924 36.8076 54.572 37.8896 55.1233C38.5477 55.4586 39.2748 55.6075 40.1549 55.6794C41.0193 55.75 42.0947 55.75 43.4664 55.75H47.5336C48.9053 55.75 49.9807 55.75 50.8451 55.6794C51.7252 55.6075 52.4523 55.4586 53.1104 55.1233C54.1924 54.572 55.072 53.6924 55.6233 52.6104C55.9586 51.9523 56.1075 51.2252 56.1794 50.3451C56.25 49.4807 56.25 48.4053 56.25 47.0336V46.9664C56.25 46.2302 56.25 45.5787 56.2391 45H56.25V44.9426C56.25 42.6342 56.25 40.8252 56.0603 39.4137C55.866 37.969 55.4607 36.8289 54.5659 35.9341C53.6711 35.0393 52.531 34.634 51.0863 34.4397C49.6748 34.25 47.8658 34.25 45.5574 34.25ZM37.8896 38.8767C37.3263 39.1637 36.8178 39.5397 36.382 39.987C36.3954 39.8588 36.4101 39.7344 36.4264 39.6136C36.5982 38.3352 36.9251 37.5645 37.4948 36.9948C38.0645 36.4251 38.8352 36.0982 40.1136 35.9264C41.4136 35.7516 43.1218 35.75 45.5 35.75C47.8782 35.75 49.5864 35.7516 50.8864 35.9264C52.1648 36.0982 52.9355 36.4251 53.5052 36.9948C54.0749 37.5645 54.4018 38.3352 54.5736 39.6136C54.5899 39.7344 54.6046 39.8588 54.618 39.987C54.1822 39.5397 53.6737 39.1637 53.1104 38.8767C52.4523 38.5414 51.7252 38.3925 50.8451 38.3206C49.9807 38.25 48.9053 38.25 47.5336 38.25H43.4664C42.0947 38.25 41.0193 38.25 40.1549 38.3206C39.2748 38.3925 38.5477 38.5414 37.8896 38.8767ZM38.5705 40.2132C38.982 40.0036 39.4897 39.88 40.2771 39.8156C41.0732 39.7506 42.0875 39.75 43.5 39.75H47.5C48.9125 39.75 49.9268 39.7506 50.7229 39.8156C51.5103 39.88 52.018 40.0036 52.4295 40.2132C53.2291 40.6207 53.8793 41.2709 54.2868 42.0705C54.4964 42.482 54.62 42.9897 54.6844 43.7771C54.7494 44.5732 54.75 45.5875 54.75 47C54.75 48.4125 54.7494 49.4268 54.6844 50.2229C54.62 51.0103 54.4964 51.518 54.2868 51.9295C53.8793 52.7291 53.2291 53.3793 52.4295 53.7868C52.018 53.9964 51.5103 54.12 50.7229 54.1844C49.9268 54.2494 48.9125 54.25 47.5 54.25H43.5C42.0875 54.25 41.0732 54.2494 40.2771 54.1844C39.4897 54.12 38.982 53.9964 38.5705 53.7868C37.7709 53.3793 37.1207 52.7291 36.7132 51.9295C36.5036 51.518 36.38 51.0103 36.3156 50.2229C36.2506 49.4268 36.25 48.4125 36.25 47C36.25 45.5875 36.2506 44.5732 36.3156 43.7771C36.38 42.9897 36.5036 42.482 36.7132 42.0705C37.1207 41.2709 37.7709 40.6207 38.5705 40.2132Z" fill="#2A2C35"/>
<defs>
<filter id="filter0_d_162_11465" x="0.5" y="0" width="90" height="92" filterUnits="userSpaceOnUse" color-interpolation-filters="sRGB">
<feFlood flood-opacity="0" result="BackgroundImageFix"/>
<feColorMatrix in="SourceAlpha" type="matrix" values="0 0 0 0 0 0 0 0 0 0 0 0 0 0 0 0 0 0 127 0" result="hardAlpha"/>
<feOffset dy="2"/>
<feComposite in2="hardAlpha" operator="out"/>
<feColorMatrix type="matrix" values="0 0 0 0 0 0 0 0 0 0 0 0 0 0 0 0 0 0 1 0"/>
<feBlend mode="normal" in2="BackgroundImageFix" result="effect1_dropShadow_162_11465"/>
<feBlend mode="normal" in="SourceGraphic" in2="effect1_dropShadow_162_11465" result="shape"/>
</filter>
</defs>
</svg>
