<svg width="163" height="40" viewBox="0 0 163 40" fill="none" xmlns="http://www.w3.org/2000/svg">
<path d="M64.8031 13.6957V13.6428C64.8302 13.0874 64.7215 12.5586 64.5042 12.0561C64.2868 11.6065 63.9879 11.2099 63.6075 10.8925C63.1728 10.5488 62.6837 10.2579 62.1403 10.0463C61.4882 9.78186 60.8361 9.57031 60.1568 9.41164C59.5318 9.25297 59.0156 9.0943 58.608 8.98852C58.282 8.90919 57.9559 8.77697 57.6299 8.6183C57.4397 8.51252 57.2495 8.35385 57.1408 8.16873C57.0593 7.98362 57.0049 7.77207 57.0049 7.56051V7.53406C57.0049 7.19028 57.1679 6.8465 57.4668 6.66139C57.7657 6.42339 58.2548 6.31761 58.8797 6.31761C59.5318 6.31761 60.1568 6.44983 60.7545 6.68783C61.4338 6.95228 62.0588 7.29606 62.6565 7.71918L64.314 5.3656C63.5804 4.78381 62.738 4.33426 61.8414 4.01692C60.8904 3.69959 59.9122 3.54091 58.9069 3.54091C58.2005 3.54091 57.5212 3.6467 56.8419 3.85825C56.2441 4.04337 55.7007 4.33426 55.2388 4.73093C54.8041 5.10115 54.4508 5.55071 54.2063 6.07961C53.9617 6.63494 53.8259 7.21673 53.8259 7.82496V7.87784C53.7987 8.48607 53.9346 9.0943 54.1791 9.64964C54.3965 10.1256 54.7225 10.5223 55.1573 10.8396C55.6192 11.1834 56.1354 11.4479 56.6789 11.633C57.331 11.871 58.0103 12.0561 58.6895 12.2148C59.2873 12.3734 59.8036 12.5057 60.184 12.6379C60.51 12.7437 60.8089 12.8759 61.0806 13.0346C61.2708 13.1403 61.4067 13.299 61.5153 13.4577C61.5969 13.6163 61.624 13.8015 61.624 13.9866V14.0395C61.624 14.4361 61.4338 14.8063 61.0806 15.0179C60.7002 15.2559 60.184 15.3617 59.5318 15.3617C58.7439 15.3617 57.9559 15.203 57.2223 14.8857C56.4887 14.5419 55.8094 14.1188 55.1845 13.6163L53.2825 15.8112C54.1248 16.5517 55.1301 17.1335 56.1898 17.5301C57.2495 17.9004 58.3363 18.0855 59.4503 18.0855C60.184 18.0855 60.9176 18.0062 61.624 17.7946C62.2218 17.6095 62.7924 17.3186 63.3086 16.9484C63.7706 16.5781 64.1509 16.1021 64.3955 15.5732C64.6672 14.9915 64.8031 14.3568 64.8031 13.6957ZM81.7579 10.8132V10.7603C81.7579 9.78186 81.5677 8.80341 81.1873 7.90429C80.8069 7.03161 80.2635 6.26472 79.5842 5.60361C78.8777 4.94249 78.0626 4.41359 77.1388 4.04336C75.1553 3.27647 72.9272 3.27647 70.9166 4.04336C69.0689 4.75737 67.6017 6.18539 66.8409 7.95718C66.4605 8.8563 66.2431 9.83475 66.2431 10.7868V10.8396C66.2431 11.8181 66.4333 12.7966 66.8137 13.6957C67.1941 14.5683 67.7375 15.3352 68.4168 15.9964C69.1233 16.6575 69.9384 17.1864 70.8622 17.5566C71.8404 17.9533 72.9001 18.1384 73.9598 18.1384C75.0194 18.1384 76.0791 17.9533 77.0844 17.5566C78.9321 16.8426 80.3722 15.4146 81.1601 13.6428C81.5677 12.7437 81.7579 11.7917 81.7579 10.8132ZM78.3887 10.8661C78.3887 11.4479 78.28 12.0297 78.0626 12.585C77.8452 13.1139 77.5463 13.5899 77.166 13.9866C76.7856 14.3832 76.2965 14.727 75.7802 14.9386C75.2096 15.1766 74.6119 15.2824 74.0141 15.2824C73.3892 15.2824 72.7914 15.1766 72.248 14.9386C71.1883 14.4626 70.346 13.6163 69.9384 12.5586C69.721 12.0032 69.6124 11.4214 69.6124 10.8396V10.7868C69.6124 10.205 69.721 9.62319 69.9384 9.06785C70.1558 8.53896 70.4547 8.06296 70.8351 7.66629C71.2155 7.26962 71.6774 6.92583 72.2208 6.71428C72.7914 6.47627 73.3892 6.3705 73.9869 6.3705C74.5847 6.3705 75.2096 6.47627 75.753 6.71428C76.8127 7.16384 77.655 8.03651 78.0626 9.0943C78.28 9.64964 78.3887 10.2314 78.3887 10.8132V10.8661ZM96.376 11.7123V3.69958H93.1698V11.8181C93.1698 12.9552 92.8981 13.8015 92.3275 14.3832C91.7569 14.965 90.9961 15.2295 90.0179 15.2295C89.0398 15.2295 88.2518 14.9386 87.7084 14.3568C87.1649 13.775 86.8661 12.9023 86.8661 11.7388V3.72603H83.6599V11.8181C83.6599 13.9072 84.2305 15.4939 85.3445 16.5253C86.4585 17.5566 88.0073 18.1119 89.9636 18.1119C90.8602 18.1119 91.7569 17.9797 92.5992 17.7153C93.36 17.4773 94.0393 17.0541 94.6099 16.5253C95.1805 15.9699 95.6152 15.2824 95.8869 14.5419C96.2673 13.6428 96.4032 12.6908 96.376 11.7123ZM111.239 17.9004L107.679 12.8494C108.576 12.5321 109.364 11.9768 109.934 11.2628C110.505 10.5488 110.804 9.59675 110.804 8.45963V8.40673C110.804 6.92583 110.315 5.78871 109.364 4.96893C108.413 4.14914 107.054 3.72603 105.315 3.72603H98.6584V17.9004H101.865V13.3519H104.391L107.516 17.9004H111.239ZM107.571 8.59185C107.598 9.14719 107.353 9.67608 106.946 10.0463C106.511 10.4165 105.913 10.6016 105.125 10.6016H101.892V6.52917H105.071C105.859 6.52917 106.484 6.68784 106.918 7.03162C107.353 7.3754 107.571 7.87784 107.571 8.53896V8.59185ZM125.83 15.5997L123.792 13.5899C123.275 14.0659 122.705 14.4626 122.08 14.8064C121.509 15.0972 120.803 15.2559 119.961 15.2559C118.792 15.2824 117.678 14.7799 116.917 13.9337C116.537 13.5106 116.238 13.0346 116.048 12.5057C115.831 11.9503 115.722 11.3685 115.722 10.7868V10.7339C115.722 10.1521 115.831 9.57031 116.048 9.01497C116.238 8.48607 116.537 8.01006 116.917 7.61339C117.298 7.21672 117.76 6.87295 118.249 6.66139C118.792 6.42339 119.363 6.31761 119.933 6.31761C120.613 6.31761 121.292 6.44983 121.917 6.74072C122.542 7.05806 123.14 7.45473 123.656 7.90429L125.694 5.60361C125.368 5.28627 124.987 4.96893 124.607 4.70448C124.199 4.44003 123.792 4.20204 123.33 4.01692C122.841 3.80537 122.324 3.67314 121.808 3.56736C121.183 3.46158 120.558 3.40869 119.933 3.40869C118.874 3.40869 117.841 3.59381 116.863 3.99048C115.966 4.3607 115.151 4.8896 114.472 5.57716C113.793 6.23828 113.276 7.03161 112.923 7.90429C112.543 8.80341 112.353 9.78186 112.353 10.7603V10.8132C112.353 11.7917 112.543 12.7701 112.923 13.6692C113.63 15.4146 115.07 16.8161 116.863 17.5301C117.814 17.9268 118.819 18.1119 119.852 18.0855C120.504 18.0855 121.129 18.0326 121.754 17.9004C122.297 17.7946 122.814 17.6359 123.33 17.3979C123.792 17.1864 124.254 16.9219 124.661 16.6046C125.069 16.3401 125.476 15.9964 125.83 15.5997ZM131.046 17.9004V3.72603H127.84V17.9004H131.046ZM146.969 17.9004V3.72603H143.817V12.4528L136.997 3.72603H134.035V17.9004H137.187V8.88274L144.252 17.9004H146.969ZM163 15.8906V9.72897H156.669V12.4263H159.902V14.4626C159.087 15.0444 158.082 15.3088 156.886 15.3088C156.288 15.3088 155.664 15.203 155.12 14.965C154.604 14.7535 154.115 14.4361 153.734 14.013C153.327 13.5899 153.028 13.1139 152.811 12.585C152.593 12.0032 152.485 11.395 152.485 10.7868V10.7339C152.485 10.1521 152.593 9.57031 152.811 9.01497C153.001 8.48607 153.327 8.01006 153.707 7.61339C154.088 7.21672 154.55 6.89939 155.039 6.66139C155.555 6.42339 156.098 6.29116 156.669 6.31761C157.049 6.31761 157.43 6.34405 157.81 6.42338C158.136 6.47627 158.462 6.58205 158.788 6.71428C159.087 6.8465 159.386 6.97873 159.658 7.16384C159.957 7.34895 160.228 7.56051 160.5 7.77206L162.511 5.39204C162.13 5.07471 161.75 4.81026 161.342 4.57226C160.935 4.33425 160.5 4.1227 160.038 3.96403C159.549 3.80536 159.06 3.67314 158.544 3.59381C157.946 3.51447 157.348 3.46158 156.778 3.46158C155.718 3.46158 154.685 3.64669 153.707 4.04336C150.909 5.18048 149.115 7.8514 149.115 10.7868V10.8396C149.115 11.8445 149.305 12.823 149.686 13.7486C150.039 14.6212 150.583 15.3881 151.262 16.0493C151.941 16.7104 152.783 17.2128 153.68 17.5566C154.685 17.9268 155.718 18.1119 156.805 18.1119C158.136 18.1119 159.332 17.9004 160.364 17.4508C161.315 17.0806 162.212 16.5517 163 15.8906ZM63.363 31.3078V22.0257H60.0753V31.1492C60.0753 31.9689 59.9122 32.5772 59.559 32.9474C59.2058 33.3176 58.7439 33.5027 58.1189 33.5027C57.6299 33.5027 57.1408 33.3705 56.706 33.1325C56.2441 32.8416 55.8094 32.4978 55.4562 32.1012L53.4455 34.2961C53.9889 34.9043 54.6139 35.4068 55.3475 35.8034C56.1083 36.2265 57.0593 36.4381 58.2005 36.4381C58.9069 36.4381 59.6134 36.3323 60.2926 36.1208C60.8904 35.9357 61.461 35.5919 61.9229 35.1688C62.3848 34.7192 62.738 34.1903 62.9826 33.5821C63.2543 32.8152 63.363 32.0483 63.363 31.3078ZM81.1058 29.1129V29.06C81.1058 28.0816 80.9156 27.1296 80.5352 26.204C80.1548 25.3313 79.6114 24.5644 78.9321 23.9033C78.2256 23.2422 77.4105 22.7133 76.4867 22.3431C75.5085 21.9464 74.4488 21.7613 73.3892 21.7613C72.3295 21.7613 71.2698 21.9464 70.2645 22.3431C68.4168 23.0571 66.9768 24.4851 66.1888 26.2569C65.8084 27.156 65.591 28.1345 65.591 29.0865V29.1394C65.591 30.1178 65.7812 31.0963 66.1616 31.9954C66.542 32.8681 67.0854 33.635 67.7647 34.2961C68.4712 34.9572 69.3135 35.4861 70.2101 35.8563C72.1936 36.6232 74.4217 36.6232 76.4323 35.8563C78.28 35.1423 79.7472 33.7143 80.508 31.9425C80.9156 31.0434 81.1058 30.0914 81.1058 29.1129ZM77.7637 29.1394C77.7637 29.7212 77.655 30.3029 77.4377 30.8583C77.2203 31.3872 76.9214 31.8632 76.541 32.2598C76.1606 32.6565 75.6715 33.0003 75.1553 33.2119C74.5847 33.4499 73.9869 33.5556 73.3892 33.5556C72.7642 33.5556 72.1665 33.4499 71.623 33.2119C70.5634 32.7358 69.721 31.8896 69.3135 30.8318C69.0961 30.2765 68.9874 29.6947 68.9874 29.1129V29.06C68.9874 28.4783 69.0961 27.8965 69.3135 27.3411C69.5308 26.8122 69.8297 26.3362 70.2101 25.9396C70.5905 25.5429 71.0524 25.1991 71.5959 24.9876C72.1665 24.7496 72.7642 24.6438 73.362 24.6438C73.9597 24.6438 74.5847 24.7496 75.1281 24.9876C76.1878 25.4371 77.0301 26.3098 77.4377 27.3676C77.655 27.9229 77.7637 28.5047 77.7637 29.0865V29.1394ZM96.0499 30.012V21.9993H92.8437V30.1178C92.8437 31.2549 92.572 32.1012 92.0014 32.6565C91.458 33.2119 90.67 33.5027 89.6919 33.5027C88.7137 33.5027 87.9257 33.2118 87.3823 32.6301C86.8389 32.0483 86.54 31.1756 86.54 30.012V21.9993H83.3338V30.0914C83.3338 32.1805 83.9044 33.7672 85.0184 34.7985C86.1324 35.8563 87.6812 36.3852 89.6375 36.3852C90.5342 36.3852 91.4308 36.253 92.2731 35.9885C93.0339 35.7505 93.7132 35.3274 94.2838 34.7985C94.8544 34.2432 95.2891 33.5556 95.5609 32.8152C95.9141 31.9161 96.0771 30.9641 96.0499 30.012ZM111.239 36.2001L107.679 31.1492C108.576 30.8318 109.364 30.2765 109.934 29.5625C110.505 28.8485 110.804 27.8965 110.804 26.7593V26.7065C110.804 25.2256 110.315 24.0884 109.364 23.2686C108.413 22.4489 107.054 22.0257 105.315 22.0257H98.6584V36.2001H101.865V31.6516H104.391L107.516 36.2001H111.239ZM107.543 26.8916C107.571 27.4469 107.326 27.9758 106.918 28.346C106.484 28.7163 105.886 28.9014 105.098 28.9014H101.865V24.8289H105.044C105.832 24.8289 106.456 24.9876 106.891 25.3313C107.326 25.6751 107.571 26.1776 107.571 26.8387L107.543 26.8916ZM126.264 36.2001V22.0257H123.112V30.7525L116.292 22.0257H113.331V36.2001H116.483V27.1825L123.547 36.2001H126.264ZM143.273 36.2001L137.024 21.92H134.09L127.84 36.2001H131.101C133.193 31.1756 133.329 30.8583 135.503 25.6751C137.703 30.9376 137.758 31.0963 139.904 36.2001H143.273ZM155.31 36.2001V33.397H148.056V22.0257H144.849V36.2001H155.31Z" fill="#1A1D20"/>
<g clip-path="url(#clip0_1_13825)">
<mask id="mask0_1_13825" style="mask-type:luminance" maskUnits="userSpaceOnUse" x="0" y="0" width="46" height="40">
<path d="M0 11.3247H3.88655V15.1073H0V11.3247ZM5.75217 18.404H11.9712V24.4559H5.75217V18.404ZM19.1498 14.6956H28.9857V25.0605H18.3361V15.3392L13.5805 10.8749H6.51347V3.2355H14.3628V10.2026L19.1498 14.6956ZM18.337 0H24.6332C30.2539 0 35.361 2.2349 39.0608 5.83669C42.7606 9.43849 45.0579 14.4081 45.0579 19.8785C45.0579 25.3489 42.7616 30.3195 39.0608 33.9203C35.361 37.5212 30.2539 39.757 24.6332 39.757H18.337V32.6081H24.6332C28.2263 32.6081 31.4954 31.1745 33.867 28.8663C36.2395 26.5572 37.7116 23.3755 37.7116 19.8794C37.7116 16.3834 36.2386 13.2007 33.867 10.8926C31.4945 8.58348 28.2254 7.15074 24.6332 7.15074H18.337V0Z" fill="white"/>
</mask>
<g mask="url(#mask0_1_13825)">
<path d="M0 11.3247H3.88655V15.1073H0V11.3247ZM5.75217 18.404H11.9712V24.4559H5.75217V18.404ZM19.1498 14.6956H28.9857V25.0605H18.3361V15.3392L13.5805 10.8749H6.51347V3.2355H14.3628V10.2026L19.1498 14.6956ZM18.337 0H24.6332C30.2539 0 35.361 2.2349 39.0608 5.83669C42.7606 9.43849 45.0579 14.4081 45.0579 19.8785C45.0579 25.3489 42.7616 30.3195 39.0608 33.9203C35.361 37.5212 30.2539 39.757 24.6332 39.757H18.337V32.6081H24.6332C28.2263 32.6081 31.4954 31.1745 33.867 28.8663C36.2395 26.5572 37.7116 23.3755 37.7116 19.8794C37.7116 16.3834 36.2386 13.2007 33.867 10.8926C31.4945 8.58348 28.2254 7.15074 24.6332 7.15074H18.337V0Z" fill="#73DAC8"/>
</g>
</g>
<defs>
<clipPath id="clip0_1_13825">
<rect width="45.0569" height="39.7561" fill="white"/>
</clipPath>
</defs>
</svg>
