<svg width="24" height="24" viewBox="0 0 24 24" fill="none" xmlns="http://www.w3.org/2000/svg">
<mask id="mask0_871_26608" style="mask-type:luminance" maskUnits="userSpaceOnUse" x="0" y="0" width="24" height="24">
<path d="M24 0H0V24H24V0Z" fill="white"/>
</mask>
<g mask="url(#mask0_871_26608)">
<path fill-rule="evenodd" clip-rule="evenodd" d="M10 10.357C10 9.92306 10.3497 9.57129 10.7811 9.57129H14.2189C14.4827 9.57129 14.7287 9.70527 14.873 9.92751C15.0172 10.1498 15.0401 10.4302 14.934 10.6732L12.187 16.9587C12.0134 17.356 11.5525 17.5364 11.1575 17.3618C10.7626 17.1872 10.5832 16.7236 10.7568 16.3264L13.0222 11.1427H10.7811C10.3497 11.1427 10 10.7909 10 10.357Z" fill="#2A2C35"/>
<path fill-rule="evenodd" clip-rule="evenodd" d="M19.6694 1.09364C20.1548 1.09364 20.5483 1.48716 20.5483 1.97259V6.94469C20.5483 7.43012 20.1548 7.82364 19.6694 7.82364H14.6973C14.2118 7.82364 13.8183 7.43012 13.8183 6.94469C13.8183 6.45925 14.2118 6.06573 14.6973 6.06573H17.4635C14.1289 3.43699 9.27986 3.66092 6.20326 6.73752C2.88516 10.0556 2.88516 15.4353 6.20326 18.7534C9.52136 22.0715 14.9011 22.0715 18.2192 18.7534C20.4422 16.5304 21.177 13.3816 20.4193 10.5444C20.2941 10.0754 20.5727 9.59369 21.0417 9.46845C21.5107 9.3432 21.9924 9.62186 22.1177 10.0909C23.0306 13.5094 22.1469 17.3118 19.4622 19.9964C15.4576 24.001 8.96484 24.001 4.96024 19.9964C0.955638 15.9918 0.955638 9.49909 4.96024 5.49449C8.74795 1.70678 14.7616 1.50163 18.7904 4.87906V1.97259C18.7904 1.48716 19.1839 1.09364 19.6694 1.09364Z" fill="#2A2C35"/>
</g>
</svg>
