<svg width="36" height="36" viewBox="0 0 36 36" fill="none" xmlns="http://www.w3.org/2000/svg">
<path d="M33.8131 1.80762L20.0381 11.9972L22.6023 5.98931L33.8131 1.80762Z" fill="#E17726" stroke="#E17726" stroke-width="0.349503" stroke-linecap="round" stroke-linejoin="round"/>
<path d="M2.04419 1.80762L15.6925 12.0941L13.255 5.99677L2.04419 1.80762Z" fill="#E27625" stroke="#E27625" stroke-width="0.349503" stroke-linecap="round" stroke-linejoin="round"/>
<path d="M28.8562 25.4292L25.1888 31.0272L33.0379 33.1888L35.289 25.5559L28.8562 25.4292Z" fill="#E27625" stroke="#E27625" stroke-width="0.349503" stroke-linecap="round" stroke-linejoin="round"/>
<path d="M0.590698 25.5559L2.8269 33.1888L10.6611 31.0272L7.0086 25.4292L0.590698 25.5559Z" fill="#E27625" stroke="#E27625" stroke-width="0.349503" stroke-linecap="round" stroke-linejoin="round"/>
<path d="M10.2361 15.9777L8.05951 19.2649L15.8266 19.6152L15.5657 11.2593L10.2361 15.9777Z" fill="#E27625" stroke="#E27625" stroke-width="0.349503" stroke-linecap="round" stroke-linejoin="round"/>
<path d="M25.6212 15.9775L20.217 11.1697L20.0381 19.6225L27.8052 19.2722L25.6212 15.9775Z" fill="#E27625" stroke="#E27625" stroke-width="0.349503" stroke-linecap="round" stroke-linejoin="round"/>
<path d="M10.6535 31.0272L15.3495 28.7612L11.302 25.6082L10.6535 31.0272Z" fill="#E27625" stroke="#E27625" stroke-width="0.349503" stroke-linecap="round" stroke-linejoin="round"/>
<path d="M20.5003 28.7612L25.1889 31.0272L24.5478 25.6082L20.5003 28.7612Z" fill="#E27625" stroke="#E27625" stroke-width="0.349503" stroke-linecap="round" stroke-linejoin="round"/>
<path d="M25.1889 31.0272L20.5003 28.7612L20.8805 31.8025L20.8432 33.092L25.1889 31.0272Z" fill="#D5BFB2" stroke="#D5BFB2" stroke-width="0.349503" stroke-linecap="round" stroke-linejoin="round"/>
<path d="M10.6535 31.0272L15.0141 33.092L14.9843 31.8025L15.3495 28.7612L10.6535 31.0272Z" fill="#D5BFB2" stroke="#D5BFB2" stroke-width="0.349503" stroke-linecap="round" stroke-linejoin="round"/>
<path d="M15.0961 23.5956L11.1977 22.4552L13.9482 21.188L15.0961 23.5956Z" fill="#233447"/>
<path d="M20.7612 23.5956L21.9091 21.188L24.6746 22.4552L20.7612 23.5956Z" fill="#233447"/>
<path d="M15.0961 23.5956L11.1977 22.4552L13.9482 21.188L15.0961 23.5956Z" stroke="#233447" stroke-width="0.349503" stroke-linecap="round" stroke-linejoin="round"/>
<path d="M20.7612 23.5956L21.9091 21.188L24.6746 22.4552L20.7612 23.5956Z" stroke="#233447" stroke-width="0.349503" stroke-linecap="round" stroke-linejoin="round"/>
<path d="M10.6535 31.0272L11.3318 25.4292L7.00104 25.5485L10.6535 31.0272Z" fill="#CC6228" stroke="#CC6228" stroke-width="0.349503" stroke-linecap="round" stroke-linejoin="round"/>
<path d="M24.5179 25.4292L25.1888 31.0272L28.8562 25.5485L24.5179 25.4292Z" fill="#CC6228" stroke="#CC6228" stroke-width="0.349503" stroke-linecap="round" stroke-linejoin="round"/>
<path d="M27.8052 19.2649L20.0381 19.6152L20.7612 23.5957L21.9091 21.188L24.6745 22.4552L27.8052 19.2649Z" fill="#CC6228" stroke="#CC6228" stroke-width="0.349503" stroke-linecap="round" stroke-linejoin="round"/>
<path d="M11.1977 22.4552L13.9482 21.188L15.0961 23.5957L15.8191 19.6152L8.05206 19.2649L11.1977 22.4552Z" fill="#CC6228" stroke="#CC6228" stroke-width="0.349503" stroke-linecap="round" stroke-linejoin="round"/>
<path d="M8.05206 19.2649L11.3095 25.6083L11.1977 22.4552L8.05206 19.2649Z" fill="#E27525" stroke="#E27525" stroke-width="0.349503" stroke-linecap="round" stroke-linejoin="round"/>
<path d="M24.6744 22.4552L24.5552 25.6083L27.8126 19.2649L24.6744 22.4552Z" fill="#E27525" stroke="#E27525" stroke-width="0.349503" stroke-linecap="round" stroke-linejoin="round"/>
<path d="M15.8191 19.6152L15.0961 23.5957L16.0055 28.2992L16.2067 22.1049L15.8191 19.6152Z" fill="#E27525" stroke="#E27525" stroke-width="0.349503" stroke-linecap="round" stroke-linejoin="round"/>
<path d="M20.0381 19.6152L19.658 22.09L19.8518 28.2992L20.7612 23.5957L20.0381 19.6152Z" fill="#E27525" stroke="#E27525" stroke-width="0.349503" stroke-linecap="round" stroke-linejoin="round"/>
<path d="M20.7612 23.5955L19.8518 28.299L20.5078 28.7612L24.5553 25.6081L24.6746 22.4551L20.7612 23.5955Z" fill="#F5841F" stroke="#F5841F" stroke-width="0.349503" stroke-linecap="round" stroke-linejoin="round"/>
<path d="M11.1977 22.4551L11.3095 25.6081L15.357 28.7612L16.013 28.299L15.0961 23.5955L11.1977 22.4551Z" fill="#F5841F" stroke="#F5841F" stroke-width="0.349503" stroke-linecap="round" stroke-linejoin="round"/>
<path d="M20.8431 33.0919L20.8804 31.8023L20.5226 31.5042H15.3197L14.9768 31.8023L15.0067 33.0919L10.6461 31.0271L12.1741 32.2794L15.2675 34.4112H20.5673L23.6757 32.2794L25.1888 31.0271L20.8431 33.0919Z" fill="#C0AC9D" stroke="#C0AC9D" stroke-width="0.349503" stroke-linecap="round" stroke-linejoin="round"/>
<path d="M20.5002 28.7612L19.8443 28.2991H16.0055L15.3495 28.7612L14.9843 31.8025L15.3271 31.5043H20.53L20.8878 31.8025L20.5002 28.7612Z" fill="#161616" stroke="#161616" stroke-width="0.349503" stroke-linecap="round" stroke-linejoin="round"/>
<path d="M34.3946 12.6605L35.5499 7.03276L33.8057 1.80005L20.5003 11.6542L25.6212 15.9776L32.8516 18.0871L34.4467 16.2236L33.7535 15.7241L34.8567 14.7178L34.0144 14.0693L35.1176 13.227L34.3946 12.6605Z" fill="#763E1A" stroke="#763E1A" stroke-width="0.349503" stroke-linecap="round" stroke-linejoin="round"/>
<path d="M0.299988 7.04057L1.47027 12.6683L0.717413 13.2274L1.83551 14.0697L0.993211 14.7182L2.0964 15.7245L1.40318 16.2239L2.99834 18.0874L10.2287 15.9779L15.3496 11.6546L2.04422 1.80786L0.299988 7.04057Z" fill="#763E1A" stroke="#763E1A" stroke-width="0.349503" stroke-linecap="round" stroke-linejoin="round"/>
<path d="M32.859 18.0797L25.6286 15.9702L27.8052 19.2574L24.5478 25.6008L28.8488 25.5486H35.2816L32.859 18.0797Z" fill="#F5841F" stroke="#F5841F" stroke-width="0.349503" stroke-linecap="round" stroke-linejoin="round"/>
<path d="M10.2361 15.9775L3.00576 18.087L0.598114 25.5559H7.01601L11.317 25.6081L8.05958 19.2648L10.2361 15.9775Z" fill="#F5841F" stroke="#F5841F" stroke-width="0.349503" stroke-linecap="round" stroke-linejoin="round"/>
<path d="M20.038 19.6152L20.5002 11.6543L22.5948 5.98926H13.2549L15.3495 11.6543L15.8116 19.6152L15.9905 22.1123L16.0054 28.2916H19.8442L19.8591 22.1123L20.038 19.6152Z" fill="#F5841F" stroke="#F5841F" stroke-width="0.349503" stroke-linecap="round" stroke-linejoin="round"/>
</svg>
