<svg width="25" height="24" viewBox="0 0 25 24" fill="none" xmlns="http://www.w3.org/2000/svg">
<path d="M22.5 16.7417V4.67165C22.5 3.47165 21.52 2.58165 20.33 2.68165H20.27C18.17 2.86165 14.98 3.93165 13.2 5.05165L13.03 5.16165C12.74 5.34165 12.26 5.34165 11.97 5.16165L11.72 5.01165C9.94 3.90165 6.76 2.84165 4.66 2.67165C3.47 2.57165 2.5 3.47165 2.5 4.66165V16.7417C2.5 17.7017 3.28 18.6017 4.24 18.7217L4.53 18.7617C6.7 19.0517 10.05 20.1517 11.97 21.2017L12.01 21.2217C12.28 21.3717 12.71 21.3717 12.97 21.2217C14.89 20.1617 18.25 19.0517 20.43 18.7617L20.76 18.7217C21.72 18.6017 22.5 17.7017 22.5 16.7417Z" stroke="#2A2C35" stroke-width="1.5" stroke-linecap="round" stroke-linejoin="round"/>
<path d="M12.5 5.48828V20.4883" stroke="#2A2C35" stroke-width="1.5" stroke-linecap="round" stroke-linejoin="round"/>
<path d="M8.25 8.48828H6" stroke="#2A2C35" stroke-width="1.5" stroke-linecap="round" stroke-linejoin="round"/>
<path d="M9 11.4883H6" stroke="#2A2C35" stroke-width="1.5" stroke-linecap="round" stroke-linejoin="round"/>
</svg>
