<svg width="91" height="92" viewBox="0 0 91 92" fill="none" xmlns="http://www.w3.org/2000/svg">
<g filter="url(#filter0_d_360_86876)">
<circle cx="45.5" cy="45" r="45" fill="#F0F3F4"/>
<circle cx="45.5" cy="45" r="44.5" stroke="#2A2C35"/>
</g>
<path d="M44.5 35H42.5C37.5 35 35.5 37 35.5 42V48C35.5 53 37.5 55 42.5 55H48.5C53.5 55 55.5 53 55.5 48V46" stroke="#2A2C35" stroke-width="1.5" stroke-linecap="round" stroke-linejoin="round"/>
<path d="M49.5399 36.0203L41.6599 43.9003C41.3599 44.2003 41.0599 44.7903 40.9999 45.2203L40.5699 48.2303C40.4099 49.3203 41.1799 50.0803 42.2699 49.9303L45.2799 49.5003C45.6999 49.4403 46.2899 49.1403 46.5999 48.8403L54.4799 40.9603C55.8399 39.6003 56.4799 38.0203 54.4799 36.0203C52.4799 34.0203 50.8999 34.6603 49.5399 36.0203Z" stroke="#2A2C35" stroke-width="1.5" stroke-miterlimit="10" stroke-linecap="round" stroke-linejoin="round"/>
<path d="M48.4099 37.1504C49.0799 39.5404 50.9499 41.4104 53.3499 42.0904" stroke="#2A2C35" stroke-width="1.5" stroke-miterlimit="10" stroke-linecap="round" stroke-linejoin="round"/>
<defs>
<filter id="filter0_d_360_86876" x="0.5" y="0" width="90" height="92" filterUnits="userSpaceOnUse" color-interpolation-filters="sRGB">
<feFlood flood-opacity="0" result="BackgroundImageFix"/>
<feColorMatrix in="SourceAlpha" type="matrix" values="0 0 0 0 0 0 0 0 0 0 0 0 0 0 0 0 0 0 127 0" result="hardAlpha"/>
<feOffset dy="2"/>
<feComposite in2="hardAlpha" operator="out"/>
<feColorMatrix type="matrix" values="0 0 0 0 0 0 0 0 0 0 0 0 0 0 0 0 0 0 1 0"/>
<feBlend mode="normal" in2="BackgroundImageFix" result="effect1_dropShadow_360_86876"/>
<feBlend mode="normal" in="SourceGraphic" in2="effect1_dropShadow_360_86876" result="shape"/>
</filter>
</defs>
</svg>
