<svg width="91" height="92" viewBox="0 0 91 92" fill="none" xmlns="http://www.w3.org/2000/svg">
<g filter="url(#filter0_d_360_85728)">
<circle cx="45.5" cy="45" r="45" fill="#F0F3F4"/>
<circle cx="45.5" cy="45" r="44.5" stroke="#2A2C35"/>
</g>
<path d="M55.5 49.7397V37.6697C55.5 36.4697 54.52 35.5797 53.33 35.6797H53.27C51.17 35.8597 47.98 36.9297 46.2 38.0497L46.03 38.1597C45.74 38.3397 45.26 38.3397 44.97 38.1597L44.72 38.0097C42.94 36.8997 39.76 35.8397 37.66 35.6697C36.47 35.5697 35.5 36.4697 35.5 37.6597V49.7397C35.5 50.6997 36.28 51.5997 37.24 51.7197L37.53 51.7597C39.7 52.0497 43.05 53.1497 44.97 54.1997L45.01 54.2197C45.28 54.3697 45.71 54.3697 45.97 54.2197C47.89 53.1597 51.25 52.0497 53.43 51.7597L53.76 51.7197C54.72 51.5997 55.5 50.6997 55.5 49.7397Z" stroke="#2A2C35" stroke-width="1.5" stroke-linecap="round" stroke-linejoin="round"/>
<path d="M45.5 38.4902V53.4902" stroke="#2A2C35" stroke-width="1.5" stroke-linecap="round" stroke-linejoin="round"/>
<path d="M41.25 41.4902H39" stroke="#2A2C35" stroke-width="1.5" stroke-linecap="round" stroke-linejoin="round"/>
<path d="M42 44.4902H39" stroke="#2A2C35" stroke-width="1.5" stroke-linecap="round" stroke-linejoin="round"/>
<defs>
<filter id="filter0_d_360_85728" x="0.5" y="0" width="90" height="92" filterUnits="userSpaceOnUse" color-interpolation-filters="sRGB">
<feFlood flood-opacity="0" result="BackgroundImageFix"/>
<feColorMatrix in="SourceAlpha" type="matrix" values="0 0 0 0 0 0 0 0 0 0 0 0 0 0 0 0 0 0 127 0" result="hardAlpha"/>
<feOffset dy="2"/>
<feComposite in2="hardAlpha" operator="out"/>
<feColorMatrix type="matrix" values="0 0 0 0 0 0 0 0 0 0 0 0 0 0 0 0 0 0 1 0"/>
<feBlend mode="normal" in2="BackgroundImageFix" result="effect1_dropShadow_360_85728"/>
<feBlend mode="normal" in="SourceGraphic" in2="effect1_dropShadow_360_85728" result="shape"/>
</filter>
</defs>
</svg>
