<svg width="16" height="17" viewBox="0 0 16 17" fill="none" xmlns="http://www.w3.org/2000/svg">
<path d="M13.0833 6.68524L4.49962 1.72513C4.25425 1.57993 3.97483 1.5023 3.68974 1.50012C3.2416 1.50012 2.8118 1.67818 2.49491 1.99512C2.17803 2.31207 2 2.74193 2 3.19016V13.8354C2.00006 14.1328 2.07978 14.4248 2.23088 14.681C2.38197 14.9372 2.59893 15.1483 2.85919 15.2922C3.11944 15.4361 3.4135 15.5077 3.71078 15.4995C4.00806 15.4913 4.29771 15.4035 4.54961 15.2454L13.1433 9.81531C13.4105 9.64805 13.6298 9.41442 13.7799 9.13716C13.93 8.85991 14.0057 8.5485 13.9997 8.23328C13.9936 7.91806 13.906 7.60978 13.7454 7.33849C13.5849 7.06719 13.3567 6.84213 13.0833 6.68524Z" fill="#2A2C35"/>
</svg>
