<svg width="36" height="36" viewBox="0 0 36 36" fill="none" xmlns="http://www.w3.org/2000/svg">
<path d="M18.081 1.98876L18.893 0.934949C18.4093 0.554887 17.7355 0.554887 17.2518 0.934949L18.081 1.98876ZM32.0742 6.10034L33.4044 6.11761C33.4044 5.75483 33.2662 5.40932 33.0244 5.16746C32.7652 4.90833 32.437 4.77012 32.0742 4.77012V6.10034ZM18.081 34.6741L17.3382 35.7797C17.7873 36.0734 18.3747 36.0734 18.8239 35.7797L18.081 34.6741ZM4.1051 6.10034V4.77012C3.74231 4.77012 3.3968 4.90833 3.15495 5.16746C2.89581 5.42659 2.75761 5.7721 2.77488 6.11761L4.1051 6.10034ZM17.2691 3.04257C23.3328 7.74152 30.2603 7.43055 32.0742 7.43055V4.75285C30.1912 4.75285 24.1447 4.9947 18.893 0.917672L17.2691 3.04257ZM30.744 6.06579C30.6403 12.2677 30.3812 16.6384 29.8802 19.8862C29.3792 23.0995 28.6709 25.0171 27.7553 26.3646C26.8225 27.7639 25.665 28.5931 23.9547 29.6296C22.2272 30.6662 20.0332 31.7891 17.3382 33.5685L18.8239 35.797C21.3807 34.0867 23.5228 32.9984 25.3368 31.9273C27.168 30.8389 28.7746 29.6296 29.9839 27.8675C31.2104 26.0536 32.0051 23.7041 32.5234 20.3008C33.0416 16.9321 33.3181 12.3886 33.4217 6.11761L30.744 6.06579ZM18.8239 33.5685C16.1289 31.7891 13.9522 30.6662 12.2073 29.6296C10.4971 28.6104 9.33959 27.7639 8.40671 26.3646C7.49111 25.0171 6.78281 23.0995 6.2991 19.8862C5.7981 16.6384 5.53897 12.2677 5.43532 6.06579L2.77488 6.11761C2.87854 12.3714 3.15494 16.9321 3.67321 20.3008C4.19148 23.7041 4.98615 26.0536 6.21272 27.8675C7.42201 29.6296 9.02863 30.8217 10.8426 31.9273C12.6565 33.0156 14.7814 34.104 17.3382 35.797L18.8239 33.5685ZM4.1051 7.43055C5.90176 7.43055 12.8465 7.72424 18.893 3.04257L17.2518 0.934949C12.0173 4.9947 5.97086 4.75285 4.1051 4.75285V7.43055Z" fill="#3375BB"/>
</svg>
