<svg width="36" height="36" viewBox="0 0 36 36" fill="none" xmlns="http://www.w3.org/2000/svg">
<g clip-path="url(#clip0_464_4793)">
<path d="M16.56 34.74C20.0792 30.2138 25.9504 28.21 31.5024 29.64L31.6872 29.688L31.56 29.832C31.172 30.2771 30.7619 30.7024 30.3312 31.1064L30.288 31.1472H30.228C25.5813 30.2827 20.8401 32.079 17.9328 35.8056L17.8584 35.904L17.7888 35.9952H17.7312C17.136 35.9856 16.5384 35.9472 15.96 35.8824L15.7704 35.8608L15.876 35.7C16.08 35.3688 16.32 35.0448 16.56 34.74ZM28.1616 32.4504L28.3488 32.4528H28.7064L28.416 32.6592C26.0005 34.3791 23.1974 35.4756 20.256 35.8512L19.9032 35.8944L20.16 35.6544C22.3091 33.5865 25.1793 32.4372 28.1616 32.4504ZM23.9736 26.3424C24.2123 26.2914 24.4613 26.3437 24.6593 26.4863C24.8573 26.629 24.9857 26.8487 25.0128 27.0912V27.0672C25.066 27.5101 24.7724 27.9203 24.336 28.0128C20.8002 28.7757 17.647 30.7619 15.432 33.6216C14.9744 34.2124 14.559 34.8348 14.1888 35.484L14.1456 35.5608L14.0616 35.5416C13.5576 35.4288 13.044 35.2944 12.564 35.1384L12.4224 35.0928L12.4896 34.968C12.9467 34.1261 13.4725 33.3234 14.0616 32.568C16.3066 29.6681 19.4264 27.5692 22.9584 26.5824C23.2976 26.4976 23.636 26.4176 23.9736 26.3424ZM22.2624 23.3592C26.4205 22.274 30.8161 22.5414 34.812 24.1224L34.9176 24.1656L34.8792 24.2736C34.704 24.744 34.5048 25.2144 34.2912 25.668L34.2456 25.7688L34.1424 25.728C26.58 22.732 17.9477 25.0772 12.9408 31.488C12.2128 32.4232 11.5763 33.4263 11.04 34.4832L10.9896 34.5816L10.8888 34.536C10.428 34.3392 9.96964 34.1208 9.52564 33.8808L9.42484 33.8256L9.47524 33.7248C10.0654 32.5582 10.767 31.4514 11.5704 30.42C14.2556 26.9488 18.0157 24.4657 22.2624 23.3592ZM8.6371 29.3837C8.89637 29.3576 9.15369 29.4491 9.33844 29.6328V29.6376C9.62961 29.9315 9.67469 30.3894 9.44644 30.7344C8.982 31.4417 8.55966 32.1758 8.18164 32.9328L8.12404 33.0528L8.01124 32.9784C7.58884 32.6952 7.17364 32.3904 6.77524 32.0736L6.70084 32.0136L6.74404 31.9272C7.12265 31.1848 7.54168 30.4637 7.99924 29.7672C8.1438 29.5504 8.37782 29.4097 8.6371 29.3837ZM11.8896 20.9856L11.9496 21.0072C12.5891 21.2475 13.2601 21.393 13.9416 21.4392L14.2968 21.4632L13.9968 21.6552C11.6864 23.134 9.64709 24.9987 7.96804 27.168C7.07424 28.3174 6.28547 29.5447 5.61124 30.8352L5.53924 30.9744L5.42644 30.864C5.05444 30.4968 4.68244 30.1032 4.33444 29.6976L4.28164 29.6352L4.32004 29.5656C6.16433 26.197 8.73231 23.279 11.8392 21.0216L11.8896 20.9856ZM9.85444 27.3096C16.2465 19.9534 26.5944 17.4495 35.6424 21.0696L35.7312 21.1128L35.7144 21.2064C35.6904 21.3408 35.6664 21.4728 35.64 21.6048C35.5656 21.9672 35.4792 22.3392 35.3808 22.704L35.3448 22.8336L35.2224 22.7808C32.6706 21.717 29.9327 21.1713 27.168 21.1752C26.2791 21.1754 25.391 21.2307 24.5088 21.3408C19.3316 21.9734 14.5755 24.5111 11.1672 28.4592C11.01 28.6425 10.7835 28.7521 10.5422 28.7616C10.3009 28.7712 10.0665 28.6799 9.89524 28.5096L9.87656 28.4906C9.56479 28.1636 9.55336 27.6504 9.85444 27.3096ZM27.0216 25.9536C29.2105 25.872 31.3948 26.2109 33.456 26.952L33.5904 27L33.5184 27.1224C33.2544 27.5688 32.9736 28.0032 32.6712 28.4256L32.6184 28.5L32.5368 28.4712C30.9633 27.9482 29.3158 27.6824 27.6576 27.684H27.0984C26.6431 27.7021 26.2508 27.3663 26.1984 26.9136L26.1957 26.8838C26.1786 26.6557 26.2525 26.4295 26.402 26.2552C26.5579 26.0733 26.7823 25.9641 27.0216 25.9536ZM9.04804 18.9552L9.12004 19.0464C9.45111 19.4227 9.82028 19.7638 10.2216 20.064L10.3464 20.1552L10.224 20.2488V20.232C7.43912 22.4001 5.10355 25.0902 3.34804 28.152L3.25444 28.3128L3.14884 28.1592C2.82724 27.7008 2.52484 27.2112 2.25124 26.7192L2.21764 26.6592L2.25364 26.5992C2.81767 25.6801 3.43138 24.7923 4.09204 23.94C5.51194 22.1113 7.14691 20.4602 8.96164 19.0224L9.04804 18.9552ZM3.66018 19.7726C3.89942 19.7654 4.1311 19.8569 4.30084 20.0256H4.29604C4.62363 20.3541 4.63629 20.8817 4.32484 21.2256C3.85284 21.7472 3.40004 22.288 2.96644 22.848C2.47684 23.4792 1.99684 24.1512 1.54324 24.8424L1.42084 25.0296L1.33684 24.8232C1.09936 24.2422 0.891891 23.6495 0.715243 23.0472L0.698443 22.992L0.732043 22.9464C1.02004 22.5408 1.31044 22.1472 1.59604 21.78C2.05844 21.1912 2.53844 20.6192 3.03604 20.064C3.19523 19.8853 3.42094 19.7799 3.66018 19.7726ZM7.38724 11.9952V14.0784L7.33924 14.112C4.74413 15.9575 2.43322 18.173 0.480043 20.688L0.240043 20.9904L0.196843 20.7192C0.0874819 20.0039 0.0217604 19.2825 4.3433e-05 18.5592V18.5136L0.0384434 18.4752C2.11506 16.0276 4.52781 13.8863 7.20484 12.1152L7.38724 11.9952ZM23.6856 16.38C27.8215 15.8618 32.0212 16.3569 35.9232 17.8224L36 17.8512V18C36 18.4992 35.9784 19.0152 35.9352 19.5312L35.9208 19.6896L35.7744 19.6296C32.9587 18.4966 29.9512 17.9165 26.916 17.9208C24.622 17.9184 22.3392 18.2416 20.136 18.8808L19.7928 18.9792L20.0112 18.696C20.4276 18.1524 20.7624 17.5508 21.0048 16.9104L21.0288 16.8528L21.0888 16.8384C21.9461 16.6418 22.8129 16.4888 23.6856 16.38ZM7.54804 15.9264L7.59124 16.0992C7.71369 16.6025 7.89242 17.0903 8.12404 17.5536L8.16004 17.64L8.08564 17.6976C7.48244 18.1712 6.89844 18.6688 6.33364 19.1904C5.99122 19.5026 5.46461 19.4931 5.13364 19.1688L5.1131 19.1475C4.95867 18.9819 4.87471 18.7622 4.87992 18.5351C4.88536 18.298 4.98742 18.0735 5.16244 17.9136C5.88084 17.2512 6.62804 16.6248 7.40404 16.0344L7.54804 15.9264ZM34.2215 14.2735C34.439 14.1277 34.7106 14.0878 34.9608 14.1648C35.2848 14.2632 35.604 14.3664 35.9208 14.4768L35.9952 14.5056V16.3512L35.8368 16.2936C35.3792 16.1256 34.9176 15.9704 34.452 15.828C34.058 15.7071 33.8026 15.3265 33.84 14.916L33.843 14.8882C33.874 14.6385 34.0118 14.414 34.2215 14.2735ZM6.59524 8.54881L6.66004 8.63521C6.97814 9.06211 7.19853 9.55371 7.30564 10.0752L7.32244 10.1472L7.25284 10.1904C4.66237 11.7933 2.29267 13.7281 0.204043 15.9456L4.3433e-05 16.1592V13.6752L0.0360434 13.644C1.99694 11.7276 4.16649 10.037 6.50404 8.604L6.59524 8.54881ZM23.076 13.1496C26.0464 12.7707 29.058 12.8638 31.9992 13.4256C32.438 13.5113 32.7395 13.9168 32.6952 14.3616V14.3688C32.6724 14.6119 32.5483 14.8343 32.3533 14.9813C32.1584 15.1283 31.9105 15.1865 31.6704 15.1416C30.0206 14.8238 28.3443 14.6631 26.664 14.6616C25.5408 14.6631 24.4187 14.7336 23.304 14.8728C22.7496 14.9424 22.1712 15.0336 21.5832 15.144L21.432 15.1752V15.0192C21.4584 14.8128 21.4584 14.6112 21.4584 14.4192V13.4064L21.5568 13.3896C22.0728 13.2888 22.584 13.2096 23.076 13.1496ZM22.4688 9.9168C26.9886 9.33925 31.5801 9.76202 35.9184 11.1552L36 11.1816V13.008L35.844 12.9552C32.807 11.925 29.6214 11.4004 26.4144 11.4024C25.1667 11.4046 23.9202 11.4848 22.6824 11.6424C22.3536 11.6832 22.008 11.7336 21.5952 11.8008L21.4584 11.8224V10.0608L21.5592 10.0464C21.8952 9.9936 22.1928 9.9528 22.4688 9.9168ZM3.69364 7.14959L3.75506 7.15002C4.20523 7.15695 4.65052 7.24622 5.06884 7.4136L5.28244 7.5L5.08804 7.6224C3.35936 8.72667 1.72354 9.96999 0.196843 11.34L2.1551e-05 11.5152V10.8432C-0.00282537 10.0138 0.276467 9.20809 0.792044 8.5584C1.49018 7.6664 2.56092 7.14653 3.69364 7.14959ZM21.8592 6.6864C26.235 6.13498 30.6762 6.43737 34.9368 7.5768C35.232 7.656 35.5512 7.7472 35.916 7.8576L35.9976 7.8816V9.6912L35.844 9.6432C32.7109 8.65585 29.4451 8.15404 26.16 8.1552C24.796 8.15616 23.4334 8.24192 22.08 8.412L21.7176 8.46L21.4632 8.49601V7.2672C21.4632 7.1328 21.4776 6.9936 21.4776 6.8352V6.7392L21.6888 6.7104L21.8592 6.6864ZM26.8944 3.1824C29.7549 3.26097 32.5965 3.67255 35.3616 4.4088L35.4168 4.4232L35.4408 4.476C35.6699 5.02558 35.8311 5.60102 35.9208 6.1896L35.9424 6.3888L35.7672 6.3384C35.4816 6.2544 35.2176 6.18 34.9584 6.1104C32.311 5.40345 29.5903 5.00718 26.8512 4.9296C26.6087 4.92358 26.3798 4.81644 26.2198 4.63411C26.0598 4.45177 25.9833 4.21084 26.0088 3.9696L26.0115 3.94538C26.0654 3.50322 26.4465 3.17177 26.8944 3.1824ZM23.88 3.2232C24.1325 3.20965 24.3783 3.3064 24.5538 3.48833C24.7293 3.67027 24.8171 3.91945 24.7944 4.1712H24.804C24.7639 4.60064 24.414 4.93517 23.9832 4.956C23.3112 4.9944 22.6368 5.0496 21.9648 5.124L21.7824 5.1432L21.84 4.9704C22.0237 4.40308 22.2752 3.85996 22.5888 3.3528L22.62 3.3048H22.68C23.0856 3.2712 23.484 3.2424 23.88 3.2232ZM28.7496 2.15794e-06C30.8085 -0.00158349 32.7712 0.870747 34.1496 2.4L34.3896 2.6736L34.0296 2.592C31.2733 1.96717 28.4559 1.65162 25.6296 1.6512C25.2336 1.6512 24.8304 1.6584 24.4296 1.6752H24.06L24.3552 1.4592C25.5117 0.586508 26.9041 0.0822216 28.3512 0.0120043C28.4904 2.15784e-06 28.62 2.15794e-06 28.7496 2.15794e-06Z" fill="url(#paint0_linear_464_4793)"/>
</g>
<defs>
<linearGradient id="paint0_linear_464_4793" x1="-3.84816e-05" y1="0.483852" x2="3599.52" y2="3599.52" gradientUnits="userSpaceOnUse">
<stop stop-color="#398BFF"/>
<stop offset="1" stop-color="#8864FF"/>
</linearGradient>
<clipPath id="clip0_464_4793">
<rect width="36" height="36" fill="white"/>
</clipPath>
</defs>
</svg>
