<svg width="52" height="52" viewBox="0 0 52 52" fill="none" xmlns="http://www.w3.org/2000/svg">
<g filter="url(#filter0_d_949_27086)">
<rect x="10" y="6" width="32" height="32" rx="6" fill="#D890F0"/>
<path d="M29.3149 14.7111L30.5525 16.0444L28.6077 18C28.2541 18.3556 28.2541 18.8889 28.6077 19.2444C28.9613 19.6 29.4917 19.6 29.8453 19.2444L31.7901 17.2889L33.116 18.5333C33.4696 18.8889 33.9116 18.6222 33.9116 18.2667V14.4444C33.9116 14.1778 33.7348 14 33.4696 14H29.6685C29.3149 14 29.0497 14.4444 29.3149 14.7111ZM18.7072 18.5333L19.9448 17.2889L21.8895 19.2444C22.2431 19.6 22.7735 19.6 23.1271 19.2444C23.4807 18.8889 23.4807 18.3556 23.1271 18L21.2707 16.0444L22.5083 14.7111C22.8619 14.4444 22.5967 14 22.2431 14H18.442C18.1768 14 18 14.1778 18 14.4444V18.2667C18 18.6222 18.442 18.8889 18.7072 18.5333ZM22.5083 29.2L21.1823 27.9556L23.1271 26C23.4807 25.6444 23.4807 25.1111 23.1271 24.7556C22.7735 24.4 22.2431 24.4 21.8895 24.7556L19.9448 26.7111L18.6188 25.4667C18.442 25.1111 18 25.3778 18 25.7333V29.5556C18 29.8222 18.1768 30 18.442 30H22.2431C22.5967 30 22.8619 29.5556 22.5083 29.2ZM33.2044 25.3778L31.8785 26.6222L29.9337 24.6667C29.5801 24.3111 29.0497 24.3111 28.6961 24.6667C28.3425 25.0222 28.3425 25.5556 28.6961 25.9111L30.6409 27.8667L29.4033 29.2C29.1381 29.4667 29.3149 30 29.7569 30H33.558C33.8232 30 34 29.8222 34 29.5556V25.7333C33.9116 25.3778 33.4696 25.1111 33.2044 25.3778Z" fill="black"/>
</g>
<defs>
<filter id="filter0_d_949_27086" x="0" y="0" width="52" height="52" filterUnits="userSpaceOnUse" color-interpolation-filters="sRGB">
<feFlood flood-opacity="0" result="BackgroundImageFix"/>
<feColorMatrix in="SourceAlpha" type="matrix" values="0 0 0 0 0 0 0 0 0 0 0 0 0 0 0 0 0 0 127 0" result="hardAlpha"/>
<feOffset dy="4"/>
<feGaussianBlur stdDeviation="5"/>
<feComposite in2="hardAlpha" operator="out"/>
<feColorMatrix type="matrix" values="0 0 0 0 1 0 0 0 0 1 0 0 0 0 1 0 0 0 0.15 0"/>
<feBlend mode="normal" in2="BackgroundImageFix" result="effect1_dropShadow_949_27086"/>
<feBlend mode="normal" in="SourceGraphic" in2="effect1_dropShadow_949_27086" result="shape"/>
</filter>
</defs>
</svg>
